<svg xmlns:xlink="http://www.w3.org/1999/xlink" xmlns="http://www.w3.org/2000/svg" width="24" height="24" viewBox="0 0 24 24" fill="none">
<path fill-rule="evenodd" clip-rule="evenodd" d="M12 2C12.2761 2 12.5 2.22386 12.5 2.5V3.79289L13.1464 3.14645C13.3417 2.95118 13.6583 2.95118 13.8536 3.14645C14.0488 3.34171 14.0488 3.65829 13.8536 3.85355L12.5 5.20711V6.29289L13.1464 5.64645C13.3417 5.45118 13.6583 5.45118 13.8536 5.64645C14.0488 5.84171 14.0488 6.15829 13.8536 6.35355L12.5 7.70711V10.5C12.5 10.7761 12.2761 11 12 11C11.7239 11 11.5 10.7761 11.5 10.5V7.70711L10.1464 6.35355C9.95118 6.15829 9.95118 5.84171 10.1464 5.64645C10.3417 5.45118 10.6583 5.45118 10.8536 5.64645L11.5 6.29289V5.20711L10.1464 3.85355C9.95118 3.65829 9.95118 3.34171 10.1464 3.14645C10.3417 2.95118 10.6583 2.95118 10.8536 3.14645L11.5 3.79289V2.5C11.5 2.22386 11.7239 2 12 2ZM12 13C12.2761 13 12.5 13.2239 12.5 13.5V16.2929L13.8536 17.6464C14.0488 17.8417 14.0488 18.1583 13.8536 18.3536C13.6583 18.5488 13.3417 18.5488 13.1464 18.3536L12.5 17.7071V18.7929L13.8536 20.1464C14.0488 20.3417 14.0488 20.6583 13.8536 20.8536C13.6583 21.0488 13.3417 21.0488 13.1464 20.8536L12.5 20.2071V21.5C12.5 21.7761 12.2761 22 12 22C11.7239 22 11.5 21.7761 11.5 21.5V20.2071L10.8536 20.8536C10.6583 21.0488 10.3417 21.0488 10.1464 20.8536C9.95118 20.6583 9.95118 20.3417 10.1464 20.1464L11.5 18.7929V17.7071L10.8536 18.3536C10.6583 18.5488 10.3417 18.5488 10.1464 18.3536C9.95118 18.1583 9.95118 17.8417 10.1464 17.6464L11.5 16.2929V13.5C11.5 13.2239 11.7239 13 12 13Z" fill="#222222"/>
<path fill-rule="evenodd" clip-rule="evenodd" d="M2 12C2 11.7239 2.22386 11.5 2.5 11.5H3.79289L3.14645 10.8536C2.95118 10.6583 2.95118 10.3417 3.14645 10.1464C3.34171 9.95118 3.65829 9.95118 3.85355 10.1464L5.20711 11.5H6.29289L5.64645 10.8536C5.45118 10.6583 5.45118 10.3417 5.64645 10.1464C5.84171 9.95118 6.15829 9.95118 6.35355 10.1464L7.70711 11.5H10.5V12.5H7.70711L6.35355 13.8536C6.15829 14.0488 5.84171 14.0488 5.64645 13.8536C5.45118 13.6583 5.45118 13.3417 5.64645 13.1464L6.29289 12.5H5.20711L3.85355 13.8536C3.65829 14.0488 3.34171 14.0488 3.14645 13.8536C2.95118 13.6583 2.95118 13.3417 3.14645 13.1464L3.79289 12.5H2.5C2.22386 12.5 2 12.2761 2 12ZM16.2929 12.5H13.5V11.5H16.2929L17.6464 10.1464C17.8417 9.95118 18.1583 9.95118 18.3536 10.1464C18.5488 10.3417 18.5488 10.6583 18.3536 10.8536L17.7071 11.5H18.7929L20.1464 10.1464C20.3417 9.95119 20.6583 9.95119 20.8536 10.1464C21.0488 10.3417 21.0488 10.6583 20.8536 10.8536L20.2071 11.5H21.5C21.7761 11.5 22 11.7239 22 12C22 12.2761 21.7761 12.5 21.5 12.5H20.2071L20.8536 13.1464C21.0488 13.3417 21.0488 13.6583 20.8536 13.8536C20.6583 14.0488 20.3417 14.0488 20.1464 13.8536L18.7929 12.5H17.7071L18.3536 13.1464C18.5488 13.3417 18.5488 13.6583 18.3536 13.8536C18.1583 14.0488 17.8417 14.0488 17.6464 13.8536L16.2929 12.5Z" fill="#222222"/>
<path fill-rule="evenodd" clip-rule="evenodd" d="M19.0711 4.92893C19.2663 5.12419 19.2663 5.44078 19.0711 5.63604L18.1569 6.55025H19.0711C19.3472 6.55025 19.5711 6.77411 19.5711 7.05025C19.5711 7.3264 19.3472 7.55025 19.0711 7.55025H17.1569L16.3891 8.31802H17.3033C17.5794 8.31802 17.8033 8.54188 17.8033 8.81802C17.8033 9.09416 17.5794 9.31802 17.3033 9.31802H15.3891L13.4142 11.2929L12.7071 10.5858L14.682 8.61091V6.6967C14.682 6.42056 14.9058 6.1967 15.182 6.1967C15.4581 6.1967 15.682 6.42056 15.682 6.6967V7.61091L16.4497 6.84315V4.92893C16.4497 4.65279 16.6736 4.42893 16.9497 4.42893C17.2259 4.42893 17.4497 4.65279 17.4497 4.92893V5.84315L18.364 4.92893C18.5592 4.73367 18.8758 4.73367 19.0711 4.92893ZM8.61091 14.682L10.5858 12.7071L11.2929 13.4142L9.31802 15.3891V17.3033C9.31802 17.5794 9.09416 17.8033 8.81802 17.8033C8.54188 17.8033 8.31802 17.5794 8.31802 17.3033L8.31802 16.3891L7.55025 17.1569V19.0711C7.55025 19.3472 7.3264 19.5711 7.05025 19.5711C6.77411 19.5711 6.55025 19.3472 6.55025 19.0711L6.55025 18.1569L5.63604 19.0711C5.44078 19.2663 5.12419 19.2663 4.92893 19.0711C4.73367 18.8758 4.73367 18.5592 4.92893 18.364L5.84315 17.4497H4.92893C4.65279 17.4497 4.42893 17.2259 4.42893 16.9497C4.42893 16.6736 4.65279 16.4497 4.92893 16.4497H6.84315L7.61091 15.682H6.6967C6.42056 15.682 6.1967 15.4581 6.1967 15.182C6.1967 14.9058 6.42056 14.682 6.6967 14.682H8.61091Z" fill="#222222"/>
<path fill-rule="evenodd" clip-rule="evenodd" d="M4.92893 4.92893C5.12419 4.73367 5.44078 4.73367 5.63604 4.92893L6.55025 5.84315V4.92893C6.55025 4.65279 6.77411 4.42893 7.05025 4.42893C7.3264 4.42893 7.55025 4.65279 7.55025 4.92893V6.84315L8.31802 7.61091V6.6967C8.31802 6.42056 8.54188 6.1967 8.81802 6.1967C9.09416 6.1967 9.31802 6.42056 9.31802 6.6967V8.61091L11.6464 10.9393L10.9393 11.6464L8.61091 9.31802H6.6967C6.42056 9.31802 6.1967 9.09416 6.1967 8.81802C6.1967 8.54188 6.42056 8.31802 6.6967 8.31802L7.61091 8.31802L6.84315 7.55025H4.92893C4.65279 7.55025 4.42893 7.3264 4.42893 7.05025C4.42893 6.77411 4.65279 6.55025 4.92893 6.55025H5.84315L4.92893 5.63604C4.73367 5.44078 4.73367 5.12419 4.92893 4.92893ZM13.0607 12.3536L15.3891 14.682H17.3033C17.5794 14.682 17.8033 14.9058 17.8033 15.182C17.8033 15.4581 17.5794 15.682 17.3033 15.682H16.3891L17.1569 16.4497H19.0711C19.3472 16.4497 19.5711 16.6736 19.5711 16.9497C19.5711 17.2259 19.3472 17.4497 19.0711 17.4497H18.1569L19.0711 18.364C19.2663 18.5592 19.2663 18.8758 19.0711 19.0711C18.8758 19.2663 18.5592 19.2663 18.364 19.0711L17.4497 18.1569V19.0711C17.4497 19.3472 17.2259 19.5711 16.9497 19.5711C16.6736 19.5711 16.4497 19.3472 16.4497 19.0711V17.1569L15.682 16.3891V17.3033C15.682 17.5794 15.4581 17.8033 15.182 17.8033C14.9058 17.8033 14.682 17.5794 14.682 17.3033V15.3891L12.3536 13.0607L13.0607 12.3536Z" fill="#222222"/>
<path fill-rule="evenodd" clip-rule="evenodd" d="M12 13C12.5523 13 13 12.5523 13 12C13 11.4477 12.5523 11 12 11C11.4477 11 11 11.4477 11 12C11 12.5523 11.4477 13 12 13ZM12 14C13.1046 14 14 13.1046 14 12C14 10.8954 13.1046 10 12 10C10.8954 10 10 10.8954 10 12C10 13.1046 10.8954 14 12 14Z" fill="#222222"/>
</svg>