<svg xmlns:xlink="http://www.w3.org/1999/xlink" xmlns="http://www.w3.org/2000/svg" width="24" height="24" viewBox="0 0 24 24" fill="none">
<path fill-rule="evenodd" clip-rule="evenodd" d="M12.025 19C12.5773 19 13.025 18.5523 13.025 18C13.025 17.4477 12.5773 17 12.025 17C11.4727 17 11.025 17.4477 11.025 18C11.025 18.5523 11.4727 19 12.025 19ZM12.025 20C13.1295 20 14.025 19.1046 14.025 18C14.025 16.8954 13.1295 16 12.025 16C10.9204 16 10.025 16.8954 10.025 18C10.025 19.1046 10.9204 20 12.025 20Z" fill="#222222"/>
<path fill-rule="evenodd" clip-rule="evenodd" d="M12.0669 5.00007C9.01472 4.98942 6.07321 6.14218 3.841 8.22375C3.63904 8.41208 3.32265 8.40103 3.13432 8.19908C2.946 7.99712 2.95704 7.68073 3.159 7.4924C5.57723 5.23737 8.76387 3.98854 12.0704 4.00008C15.3768 4.01162 18.5547 5.28267 20.9571 7.55453C21.1578 7.74426 21.1666 8.06072 20.9769 8.26136C20.7871 8.462 20.4707 8.47084 20.27 8.28111C18.0524 6.184 15.119 5.01073 12.0669 5.00007Z" fill="#222222"/>
<path fill-rule="evenodd" clip-rule="evenodd" d="M12.0542 9.00005C9.92407 8.99262 7.87114 9.79715 6.31324 11.2499C6.11129 11.4382 5.7949 11.4272 5.60657 11.2252C5.41824 11.0233 5.42929 10.7069 5.63125 10.5186C7.37516 8.89233 9.67322 7.99173 12.0577 8.00006C14.4422 8.00838 16.7339 8.925 18.4664 10.5634C18.6671 10.7531 18.6759 11.0696 18.4862 11.2702C18.2964 11.4708 17.98 11.4797 17.7793 11.2899C16.2316 9.82633 14.1844 9.00749 12.0542 9.00005Z" fill="#222222"/>
<path fill-rule="evenodd" clip-rule="evenodd" d="M12.0424 13C10.7707 12.9956 9.54508 13.4759 8.61499 14.3432C8.41303 14.5316 8.09664 14.5205 7.90831 14.3186C7.71998 14.1166 7.73103 13.8002 7.93299 13.6119C9.0491 12.5711 10.5199 11.9947 12.0459 12C13.572 12.0054 15.0387 12.592 16.1475 13.6406C16.3481 13.8303 16.357 14.1467 16.1672 14.3474C15.9775 14.548 15.6611 14.5569 15.4604 14.3671C14.5364 13.4933 13.3142 13.0045 12.0424 13Z" fill="#222222"/>
</svg>