<svg width="280" height="280" viewBox="0 0 280 280" fill="none" xmlns="http://www.w3.org/2000/svg">
<g opacity="0.16">
<mask id="mask0" mask-type="alpha" maskUnits="userSpaceOnUse" x="0" y="0" width="280" height="280">
<path d="M279.65 279.65H140C62.8734 279.65 0.350006 217.127 0.350006 140C0.350006 62.8734 62.8734 0.350006 140 0.350006H279.65L279.65 279.65Z" fill="#39312D" stroke="#39312D" stroke-width="0.7"/>
</mask>
<g mask="url(#mask0)">
<path d="M190.4 274.4L192.04 276.04C194.227 278.227 197.773 278.227 199.96 276.04L203.24 272.76C205.427 270.573 208.973 270.573 211.16 272.76L214.44 276.04C216.627 278.227 220.173 278.227 222.36 276.04L225.64 272.76C227.827 270.573 231.373 270.573 233.56 272.76L236.84 276.04C239.027 278.227 242.573 278.227 244.76 276.04L248.04 272.76C250.227 270.573 253.773 270.573 255.96 272.76L259.24 276.04C261.427 278.227 264.973 278.227 267.16 276.04L270.44 272.76C272.627 270.573 276.173 270.573 278.36 272.76L280 274.4" stroke="#39312D" stroke-width="1.4"/>
<path d="M100.801 274.4L102.441 276.04C104.628 278.227 108.173 278.227 110.36 276.04L113.641 272.76C115.828 270.573 119.373 270.573 121.56 272.76L124.841 276.04C127.028 278.227 130.573 278.227 132.76 276.04L136.041 272.76C138.228 270.573 141.773 270.573 143.96 272.76L147.241 276.04C149.428 278.227 152.973 278.227 155.16 276.04L158.441 272.76C160.628 270.573 164.173 270.573 166.36 272.76L169.641 276.04C171.828 278.227 175.373 278.227 177.56 276.04L180.841 272.76C183.028 270.573 186.573 270.573 188.76 272.76L190.401 274.4" stroke="#39312D" stroke-width="1.4"/>
<path d="M11.1994 274.4L12.8396 276.04C15.0266 278.227 18.5723 278.227 20.7592 276.04L24.0396 272.76C26.2266 270.573 29.7723 270.573 31.9592 272.76L35.2396 276.04C37.4266 278.227 40.9723 278.227 43.1592 276.04L46.4396 272.76C48.6266 270.573 52.1723 270.573 54.3592 272.76L57.6396 276.04C59.8266 278.227 63.3723 278.227 65.5592 276.04L68.8396 272.76C71.0266 270.573 74.5723 270.573 76.7592 272.76L80.0396 276.04C82.2266 278.227 85.7723 278.227 87.9592 276.04L91.2396 272.76C93.4266 270.573 96.9723 270.573 99.1592 272.76L100.799 274.4" stroke="#39312D" stroke-width="1.4"/>
<path d="M-78.3999 274.4L-76.7597 276.04C-74.5728 278.227 -71.027 278.227 -68.8401 276.04L-65.5597 272.76C-63.3728 270.573 -59.827 270.573 -57.6401 272.76L-54.3597 276.04C-52.1728 278.227 -48.627 278.227 -46.4401 276.04L-43.1597 272.76C-40.9728 270.573 -37.427 270.573 -35.2401 272.76L-31.9597 276.04C-29.7728 278.227 -26.227 278.227 -24.0401 276.04L-20.7597 272.76C-18.5728 270.573 -15.027 270.573 -12.8401 272.76L-9.5597 276.04C-7.37276 278.227 -3.82704 278.227 -1.6401 276.04L1.6403 272.76C3.82724 270.573 7.37296 270.573 9.5599 272.76L11.2001 274.4" stroke="#39312D" stroke-width="1.4"/>
<path d="M190.4 257.6L192.04 259.24C194.227 261.427 197.773 261.427 199.96 259.24L203.24 255.96C205.427 253.773 208.973 253.773 211.16 255.96L214.44 259.24C216.627 261.427 220.173 261.427 222.36 259.24L225.64 255.96C227.827 253.773 231.373 253.773 233.56 255.96L236.84 259.24C239.027 261.427 242.573 261.427 244.76 259.24L248.04 255.96C250.227 253.773 253.773 253.773 255.96 255.96L259.24 259.24C261.427 261.427 264.973 261.427 267.16 259.24L270.44 255.96C272.627 253.773 276.173 253.773 278.36 255.96L280 257.6" stroke="#39312D" stroke-width="1.4"/>
<path d="M100.801 257.6L102.441 259.24C104.628 261.427 108.173 261.427 110.36 259.24L113.641 255.96C115.828 253.773 119.373 253.773 121.56 255.96L124.841 259.24C127.028 261.427 130.573 261.427 132.76 259.24L136.041 255.96C138.228 253.773 141.773 253.773 143.96 255.96L147.241 259.24C149.428 261.427 152.973 261.427 155.16 259.24L158.441 255.96C160.628 253.773 164.173 253.773 166.36 255.96L169.641 259.24C171.828 261.427 175.373 261.427 177.56 259.24L180.841 255.96C183.028 253.773 186.573 253.773 188.76 255.96L190.401 257.6" stroke="#39312D" stroke-width="1.4"/>
<path d="M11.1994 257.6L12.8396 259.24C15.0266 261.427 18.5723 261.427 20.7592 259.24L24.0396 255.96C26.2266 253.773 29.7723 253.773 31.9592 255.96L35.2396 259.24C37.4266 261.427 40.9723 261.427 43.1592 259.24L46.4396 255.96C48.6266 253.773 52.1723 253.773 54.3592 255.96L57.6396 259.24C59.8266 261.427 63.3723 261.427 65.5592 259.24L68.8396 255.96C71.0266 253.773 74.5723 253.773 76.7592 255.96L80.0396 259.24C82.2266 261.427 85.7723 261.427 87.9592 259.24L91.2396 255.96C93.4266 253.773 96.9723 253.773 99.1592 255.96L100.799 257.6" stroke="#39312D" stroke-width="1.4"/>
<path d="M-78.3999 257.6L-76.7597 259.24C-74.5728 261.427 -71.027 261.427 -68.8401 259.24L-65.5597 255.96C-63.3728 253.773 -59.827 253.773 -57.6401 255.96L-54.3597 259.24C-52.1728 261.427 -48.627 261.427 -46.4401 259.24L-43.1597 255.96C-40.9728 253.773 -37.427 253.773 -35.2401 255.96L-31.9597 259.24C-29.7728 261.427 -26.227 261.427 -24.0401 259.24L-20.7597 255.96C-18.5728 253.773 -15.027 253.773 -12.8401 255.96L-9.5597 259.24C-7.37276 261.427 -3.82704 261.427 -1.6401 259.24L1.6403 255.96C3.82724 253.773 7.37296 253.773 9.5599 255.96L11.2001 257.6" stroke="#39312D" stroke-width="1.4"/>
<path d="M190.4 240.8L192.04 242.44C194.227 244.627 197.773 244.627 199.96 242.44L203.24 239.159C205.427 236.972 208.973 236.972 211.16 239.159L214.44 242.44C216.627 244.627 220.173 244.627 222.36 242.44L225.64 239.159C227.827 236.972 231.373 236.972 233.56 239.159L236.84 242.44C239.027 244.627 242.573 244.627 244.76 242.44L248.04 239.159C250.227 236.972 253.773 236.972 255.96 239.159L259.24 242.44C261.427 244.627 264.973 244.627 267.16 242.44L270.44 239.159C272.627 236.972 276.173 236.972 278.36 239.159L280 240.8" stroke="#39312D" stroke-width="1.4"/>
<path d="M100.801 240.8L102.441 242.441C104.628 244.628 108.173 244.628 110.36 242.441L113.641 239.16C115.828 236.973 119.373 236.973 121.56 239.16L124.841 242.441C127.028 244.628 130.573 244.628 132.76 242.441L136.041 239.16C138.228 236.973 141.773 236.973 143.96 239.16L147.241 242.441C149.428 244.628 152.973 244.628 155.16 242.441L158.441 239.16C160.628 236.973 164.173 236.973 166.36 239.16L169.641 242.441C171.828 244.628 175.373 244.628 177.56 242.441L180.841 239.16C183.028 236.973 186.573 236.973 188.76 239.16L190.401 240.8" stroke="#39312D" stroke-width="1.4"/>
<path d="M11.1994 240.8L12.8396 242.441C15.0266 244.628 18.5723 244.628 20.7592 242.441L24.0396 239.16C26.2266 236.973 29.7723 236.973 31.9592 239.16L35.2396 242.441C37.4266 244.628 40.9723 244.628 43.1592 242.441L46.4396 239.16C48.6266 236.973 52.1723 236.973 54.3592 239.16L57.6396 242.441C59.8266 244.628 63.3723 244.628 65.5592 242.441L68.8396 239.16C71.0266 236.973 74.5723 236.973 76.7592 239.16L80.0396 242.441C82.2266 244.628 85.7723 244.628 87.9592 242.441L91.2396 239.16C93.4266 236.973 96.9723 236.973 99.1592 239.16L100.799 240.8" stroke="#39312D" stroke-width="1.4"/>
<path d="M-78.3999 240.8L-76.7597 242.441C-74.5728 244.628 -71.027 244.628 -68.8401 242.441L-65.5597 239.16C-63.3728 236.973 -59.827 236.973 -57.6401 239.16L-54.3597 242.441C-52.1728 244.628 -48.627 244.628 -46.4401 242.441L-43.1597 239.16C-40.9728 236.973 -37.427 236.973 -35.2401 239.16L-31.9597 242.441C-29.7728 244.628 -26.227 244.628 -24.0401 242.441L-20.7597 239.16C-18.5728 236.973 -15.027 236.973 -12.8401 239.16L-9.5597 242.441C-7.37276 244.628 -3.82704 244.628 -1.6401 242.441L1.6403 239.16C3.82724 236.973 7.37296 236.973 9.5599 239.16L11.2001 240.8" stroke="#39312D" stroke-width="1.4"/>
<path d="M190.4 224L192.04 225.641C194.227 227.828 197.773 227.828 199.96 225.641L203.24 222.36C205.427 220.173 208.973 220.173 211.16 222.36L214.44 225.641C216.627 227.828 220.173 227.828 222.36 225.641L225.64 222.36C227.827 220.173 231.373 220.173 233.56 222.36L236.84 225.641C239.027 227.828 242.573 227.828 244.76 225.641L248.04 222.36C250.227 220.173 253.773 220.173 255.96 222.36L259.24 225.641C261.427 227.828 264.973 227.828 267.16 225.641L270.44 222.36C272.627 220.173 276.173 220.173 278.36 222.36L280 224" stroke="#39312D" stroke-width="1.4"/>
<path d="M100.801 224L102.441 225.64C104.628 227.827 108.173 227.827 110.36 225.64L113.641 222.36C115.828 220.173 119.373 220.173 121.56 222.36L124.841 225.64C127.028 227.827 130.573 227.827 132.76 225.64L136.041 222.36C138.228 220.173 141.773 220.173 143.96 222.36L147.241 225.64C149.428 227.827 152.973 227.827 155.16 225.64L158.441 222.36C160.628 220.173 164.173 220.173 166.36 222.36L169.641 225.64C171.828 227.827 175.373 227.827 177.56 225.64L180.841 222.36C183.028 220.173 186.573 220.173 188.76 222.36L190.401 224" stroke="#39312D" stroke-width="1.4"/>
<path d="M11.1994 224L12.8396 225.64C15.0266 227.827 18.5723 227.827 20.7592 225.64L24.0396 222.36C26.2266 220.173 29.7723 220.173 31.9592 222.36L35.2396 225.64C37.4266 227.827 40.9723 227.827 43.1592 225.64L46.4396 222.36C48.6266 220.173 52.1723 220.173 54.3592 222.36L57.6396 225.64C59.8266 227.827 63.3723 227.827 65.5592 225.64L68.8396 222.36C71.0266 220.173 74.5723 220.173 76.7592 222.36L80.0396 225.64C82.2266 227.827 85.7723 227.827 87.9592 225.64L91.2396 222.36C93.4266 220.173 96.9723 220.173 99.1592 222.36L100.799 224" stroke="#39312D" stroke-width="1.4"/>
<path d="M-78.3999 224L-76.7597 225.64C-74.5728 227.827 -71.027 227.827 -68.8401 225.64L-65.5597 222.36C-63.3728 220.173 -59.827 220.173 -57.6401 222.36L-54.3597 225.64C-52.1728 227.827 -48.627 227.827 -46.4401 225.64L-43.1597 222.36C-40.9728 220.173 -37.427 220.173 -35.2401 222.36L-31.9597 225.64C-29.7728 227.827 -26.227 227.827 -24.0401 225.64L-20.7597 222.36C-18.5728 220.173 -15.027 220.173 -12.8401 222.36L-9.5597 225.64C-7.37276 227.827 -3.82704 227.827 -1.6401 225.64L1.6403 222.36C3.82724 220.173 7.37296 220.173 9.5599 222.36L11.2001 224" stroke="#39312D" stroke-width="1.4"/>
<path d="M190.4 207.2L192.04 208.84C194.227 211.027 197.773 211.027 199.96 208.84L203.24 205.56C205.427 203.373 208.973 203.373 211.16 205.56L214.44 208.84C216.627 211.027 220.173 211.027 222.36 208.84L225.64 205.56C227.827 203.373 231.373 203.373 233.56 205.56L236.84 208.84C239.027 211.027 242.573 211.027 244.76 208.84L248.04 205.56C250.227 203.373 253.773 203.373 255.96 205.56L259.24 208.84C261.427 211.027 264.973 211.027 267.16 208.84L270.44 205.56C272.627 203.373 276.173 203.373 278.36 205.56L280 207.2" stroke="#39312D" stroke-width="1.4"/>
<path d="M100.801 207.2L102.441 208.84C104.628 211.027 108.173 211.027 110.36 208.84L113.641 205.56C115.828 203.373 119.373 203.373 121.56 205.56L124.841 208.84C127.028 211.027 130.573 211.027 132.76 208.84L136.041 205.56C138.228 203.373 141.773 203.373 143.96 205.56L147.241 208.84C149.428 211.027 152.973 211.027 155.16 208.84L158.441 205.56C160.628 203.373 164.173 203.373 166.36 205.56L169.641 208.84C171.828 211.027 175.373 211.027 177.56 208.84L180.841 205.56C183.028 203.373 186.573 203.373 188.76 205.56L190.401 207.2" stroke="#39312D" stroke-width="1.4"/>
<path d="M11.1994 207.2L12.8396 208.84C15.0266 211.027 18.5723 211.027 20.7592 208.84L24.0396 205.56C26.2266 203.373 29.7723 203.373 31.9592 205.56L35.2396 208.84C37.4266 211.027 40.9723 211.027 43.1592 208.84L46.4396 205.56C48.6266 203.373 52.1723 203.373 54.3592 205.56L57.6396 208.84C59.8266 211.027 63.3723 211.027 65.5592 208.84L68.8396 205.56C71.0266 203.373 74.5723 203.373 76.7592 205.56L80.0396 208.84C82.2266 211.027 85.7723 211.027 87.9592 208.84L91.2396 205.56C93.4266 203.373 96.9723 203.373 99.1592 205.56L100.799 207.2" stroke="#39312D" stroke-width="1.4"/>
<path d="M-78.3999 207.2L-76.7597 208.84C-74.5728 211.027 -71.027 211.027 -68.8401 208.84L-65.5597 205.56C-63.3728 203.373 -59.827 203.373 -57.6401 205.56L-54.3597 208.84C-52.1728 211.027 -48.627 211.027 -46.4401 208.84L-43.1597 205.56C-40.9728 203.373 -37.427 203.373 -35.2401 205.56L-31.9597 208.84C-29.7728 211.027 -26.227 211.027 -24.0401 208.84L-20.7597 205.56C-18.5728 203.373 -15.027 203.373 -12.8401 205.56L-9.5597 208.84C-7.37276 211.027 -3.82704 211.027 -1.6401 208.84L1.6403 205.56C3.82724 203.373 7.37296 203.373 9.5599 205.56L11.2001 207.2" stroke="#39312D" stroke-width="1.4"/>
<path d="M190.4 190.4L192.04 192.04C194.227 194.227 197.773 194.227 199.96 192.04L203.24 188.76C205.427 186.573 208.973 186.573 211.16 188.76L214.44 192.04C216.627 194.227 220.173 194.227 222.36 192.04L225.64 188.76C227.827 186.573 231.373 186.573 233.56 188.76L236.84 192.04C239.027 194.227 242.573 194.227 244.76 192.04L248.04 188.76C250.227 186.573 253.773 186.573 255.96 188.76L259.24 192.04C261.427 194.227 264.973 194.227 267.16 192.04L270.44 188.76C272.627 186.573 276.173 186.573 278.36 188.76L280 190.4" stroke="#39312D" stroke-width="1.4"/>
<path d="M100.801 190.4L102.441 192.04C104.628 194.227 108.173 194.227 110.36 192.04L113.641 188.76C115.828 186.573 119.373 186.573 121.56 188.76L124.841 192.04C127.028 194.227 130.573 194.227 132.76 192.04L136.041 188.76C138.228 186.573 141.773 186.573 143.96 188.76L147.241 192.04C149.428 194.227 152.973 194.227 155.16 192.04L158.441 188.76C160.628 186.573 164.173 186.573 166.36 188.76L169.641 192.04C171.828 194.227 175.373 194.227 177.56 192.04L180.841 188.76C183.028 186.573 186.573 186.573 188.76 188.76L190.401 190.4" stroke="#39312D" stroke-width="1.4"/>
<path d="M11.1994 190.4L12.8396 192.04C15.0266 194.227 18.5723 194.227 20.7592 192.04L24.0396 188.76C26.2266 186.573 29.7723 186.573 31.9592 188.76L35.2396 192.04C37.4266 194.227 40.9723 194.227 43.1592 192.04L46.4396 188.76C48.6266 186.573 52.1723 186.573 54.3592 188.76L57.6396 192.04C59.8266 194.227 63.3723 194.227 65.5592 192.04L68.8396 188.76C71.0266 186.573 74.5723 186.573 76.7592 188.76L80.0396 192.04C82.2266 194.227 85.7723 194.227 87.9592 192.04L91.2396 188.76C93.4266 186.573 96.9723 186.573 99.1592 188.76L100.799 190.4" stroke="#39312D" stroke-width="1.4"/>
<path d="M-78.3999 190.4L-76.7597 192.04C-74.5728 194.227 -71.027 194.227 -68.8401 192.04L-65.5597 188.76C-63.3728 186.573 -59.827 186.573 -57.6401 188.76L-54.3597 192.04C-52.1728 194.227 -48.627 194.227 -46.4401 192.04L-43.1597 188.76C-40.9728 186.573 -37.427 186.573 -35.2401 188.76L-31.9597 192.04C-29.7728 194.227 -26.227 194.227 -24.0401 192.04L-20.7597 188.76C-18.5728 186.573 -15.027 186.573 -12.8401 188.76L-9.5597 192.04C-7.37276 194.227 -3.82704 194.227 -1.6401 192.04L1.6403 188.76C3.82724 186.573 7.37296 186.573 9.5599 188.76L11.2001 190.4" stroke="#39312D" stroke-width="1.4"/>
<path d="M190.4 173.6L192.04 175.24C194.227 177.427 197.773 177.427 199.96 175.24L203.24 171.959C205.427 169.773 208.973 169.773 211.16 171.959L214.44 175.24C216.627 177.427 220.173 177.427 222.36 175.24L225.64 171.959C227.827 169.773 231.373 169.773 233.56 171.959L236.84 175.24C239.027 177.427 242.573 177.427 244.76 175.24L248.04 171.959C250.227 169.773 253.773 169.773 255.96 171.959L259.24 175.24C261.427 177.427 264.973 177.427 267.16 175.24L270.44 171.959C272.627 169.773 276.173 169.773 278.36 171.959L280 173.6" stroke="#39312D" stroke-width="1.4"/>
<path d="M100.801 173.6L102.441 175.241C104.628 177.428 108.173 177.428 110.36 175.241L113.641 171.96C115.828 169.773 119.373 169.773 121.56 171.96L124.841 175.241C127.028 177.428 130.573 177.428 132.76 175.241L136.041 171.96C138.228 169.773 141.773 169.773 143.96 171.96L147.241 175.241C149.428 177.428 152.973 177.428 155.16 175.241L158.441 171.96C160.628 169.773 164.173 169.773 166.36 171.96L169.641 175.241C171.828 177.428 175.373 177.428 177.56 175.241L180.841 171.96C183.028 169.773 186.573 169.773 188.76 171.96L190.401 173.6" stroke="#39312D" stroke-width="1.4"/>
<path d="M11.1994 173.6L12.8396 175.241C15.0266 177.428 18.5723 177.428 20.7592 175.241L24.0396 171.96C26.2266 169.773 29.7723 169.773 31.9592 171.96L35.2396 175.241C37.4266 177.428 40.9723 177.428 43.1592 175.241L46.4396 171.96C48.6266 169.773 52.1723 169.773 54.3592 171.96L57.6396 175.241C59.8266 177.428 63.3723 177.428 65.5592 175.241L68.8396 171.96C71.0266 169.773 74.5723 169.773 76.7592 171.96L80.0396 175.241C82.2266 177.428 85.7723 177.428 87.9592 175.241L91.2396 171.96C93.4266 169.773 96.9723 169.773 99.1592 171.96L100.799 173.6" stroke="#39312D" stroke-width="1.4"/>
<path d="M-78.3999 173.6L-76.7597 175.241C-74.5728 177.428 -71.027 177.428 -68.8401 175.241L-65.5597 171.96C-63.3728 169.773 -59.827 169.773 -57.6401 171.96L-54.3597 175.241C-52.1728 177.428 -48.627 177.428 -46.4401 175.241L-43.1597 171.96C-40.9728 169.773 -37.427 169.773 -35.2401 171.96L-31.9597 175.241C-29.7728 177.428 -26.227 177.428 -24.0401 175.241L-20.7597 171.96C-18.5728 169.773 -15.027 169.773 -12.8401 171.96L-9.5597 175.241C-7.37276 177.428 -3.82704 177.428 -1.6401 175.241L1.6403 171.96C3.82724 169.773 7.37296 169.773 9.5599 171.96L11.2001 173.6" stroke="#39312D" stroke-width="1.4"/>
<path d="M190.4 156.8L192.04 158.441C194.227 160.628 197.773 160.628 199.96 158.441L203.24 155.16C205.427 152.973 208.973 152.973 211.16 155.16L214.44 158.441C216.627 160.628 220.173 160.628 222.36 158.441L225.64 155.16C227.827 152.973 231.373 152.973 233.56 155.16L236.84 158.441C239.027 160.628 242.573 160.628 244.76 158.441L248.04 155.16C250.227 152.973 253.773 152.973 255.96 155.16L259.24 158.441C261.427 160.628 264.973 160.628 267.16 158.441L270.44 155.16C272.627 152.973 276.173 152.973 278.36 155.16L280 156.8" stroke="#39312D" stroke-width="1.4"/>
<path d="M100.801 156.8L102.441 158.44C104.628 160.627 108.173 160.627 110.36 158.44L113.641 155.16C115.828 152.973 119.373 152.973 121.56 155.16L124.841 158.44C127.028 160.627 130.573 160.627 132.76 158.44L136.041 155.16C138.228 152.973 141.773 152.973 143.96 155.16L147.241 158.44C149.428 160.627 152.973 160.627 155.16 158.44L158.441 155.16C160.628 152.973 164.173 152.973 166.36 155.16L169.641 158.44C171.828 160.627 175.373 160.627 177.56 158.44L180.841 155.16C183.028 152.973 186.573 152.973 188.76 155.16L190.401 156.8" stroke="#39312D" stroke-width="1.4"/>
<path d="M11.1994 156.8L12.8396 158.44C15.0266 160.627 18.5723 160.627 20.7592 158.44L24.0396 155.16C26.2266 152.973 29.7723 152.973 31.9592 155.16L35.2396 158.44C37.4266 160.627 40.9723 160.627 43.1592 158.44L46.4396 155.16C48.6266 152.973 52.1723 152.973 54.3592 155.16L57.6396 158.44C59.8266 160.627 63.3723 160.627 65.5592 158.44L68.8396 155.16C71.0266 152.973 74.5723 152.973 76.7592 155.16L80.0396 158.44C82.2266 160.627 85.7723 160.627 87.9592 158.44L91.2396 155.16C93.4266 152.973 96.9723 152.973 99.1592 155.16L100.799 156.8" stroke="#39312D" stroke-width="1.4"/>
<path d="M-78.3999 156.8L-76.7597 158.44C-74.5728 160.627 -71.027 160.627 -68.8401 158.44L-65.5597 155.16C-63.3728 152.973 -59.827 152.973 -57.6401 155.16L-54.3597 158.44C-52.1728 160.627 -48.627 160.627 -46.4401 158.44L-43.1597 155.16C-40.9728 152.973 -37.427 152.973 -35.2401 155.16L-31.9597 158.44C-29.7728 160.627 -26.227 160.627 -24.0401 158.44L-20.7597 155.16C-18.5728 152.973 -15.027 152.973 -12.8401 155.16L-9.5597 158.44C-7.37276 160.627 -3.82704 160.627 -1.6401 158.44L1.6403 155.16C3.82724 152.973 7.37296 152.973 9.5599 155.16L11.2001 156.8" stroke="#39312D" stroke-width="1.4"/>
<path d="M190.4 140L192.04 141.64C194.227 143.827 197.773 143.827 199.96 141.64L203.24 138.359C205.427 136.172 208.973 136.172 211.16 138.359L214.44 141.64C216.627 143.827 220.173 143.827 222.36 141.64L225.64 138.359C227.827 136.172 231.373 136.172 233.56 138.359L236.84 141.64C239.027 143.827 242.573 143.827 244.76 141.64L248.04 138.359C250.227 136.172 253.773 136.172 255.96 138.359L259.24 141.64C261.427 143.827 264.973 143.827 267.16 141.64L270.44 138.359C272.627 136.172 276.173 136.172 278.36 138.359L280 140" stroke="#39312D" stroke-width="1.4"/>
<path d="M100.801 140L102.441 141.64C104.628 143.827 108.173 143.827 110.36 141.64L113.641 138.36C115.828 136.173 119.373 136.173 121.56 138.36L124.841 141.64C127.028 143.827 130.573 143.827 132.76 141.64L136.041 138.36C138.228 136.173 141.773 136.173 143.96 138.36L147.241 141.64C149.428 143.827 152.973 143.827 155.16 141.64L158.441 138.36C160.628 136.173 164.173 136.173 166.36 138.36L169.641 141.64C171.828 143.827 175.373 143.827 177.56 141.64L180.841 138.36C183.028 136.173 186.573 136.173 188.76 138.36L190.401 140" stroke="#39312D" stroke-width="1.4"/>
<path d="M11.1994 140L12.8396 141.64C15.0266 143.827 18.5723 143.827 20.7592 141.64L24.0396 138.36C26.2266 136.173 29.7723 136.173 31.9592 138.36L35.2396 141.64C37.4266 143.827 40.9723 143.827 43.1592 141.64L46.4396 138.36C48.6266 136.173 52.1723 136.173 54.3592 138.36L57.6396 141.64C59.8266 143.827 63.3723 143.827 65.5592 141.64L68.8396 138.36C71.0266 136.173 74.5723 136.173 76.7592 138.36L80.0396 141.64C82.2266 143.827 85.7723 143.827 87.9592 141.64L91.2396 138.36C93.4266 136.173 96.9723 136.173 99.1592 138.36L100.799 140" stroke="#39312D" stroke-width="1.4"/>
<path d="M-78.3999 140L-76.7597 141.64C-74.5728 143.827 -71.027 143.827 -68.8401 141.64L-65.5597 138.36C-63.3728 136.173 -59.827 136.173 -57.6401 138.36L-54.3597 141.64C-52.1728 143.827 -48.627 143.827 -46.4401 141.64L-43.1597 138.36C-40.9728 136.173 -37.427 136.173 -35.2401 138.36L-31.9597 141.64C-29.7728 143.827 -26.227 143.827 -24.0401 141.64L-20.7597 138.36C-18.5728 136.173 -15.027 136.173 -12.8401 138.36L-9.5597 141.64C-7.37276 143.827 -3.82704 143.827 -1.6401 141.64L1.6403 138.36C3.82724 136.173 7.37296 136.173 9.5599 138.36L11.2001 140" stroke="#39312D" stroke-width="1.4"/>
<path d="M190.4 123.2L192.04 124.84C194.227 127.027 197.773 127.027 199.96 124.84L203.24 121.56C205.427 119.373 208.973 119.373 211.16 121.56L214.44 124.84C216.627 127.027 220.173 127.027 222.36 124.84L225.64 121.56C227.827 119.373 231.373 119.373 233.56 121.56L236.84 124.84C239.027 127.027 242.573 127.027 244.76 124.84L248.04 121.56C250.227 119.373 253.773 119.373 255.96 121.56L259.24 124.84C261.427 127.027 264.973 127.027 267.16 124.84L270.44 121.56C272.627 119.373 276.173 119.373 278.36 121.56L280 123.2" stroke="#39312D" stroke-width="1.4"/>
<path d="M100.801 123.2L102.441 124.84C104.628 127.027 108.173 127.027 110.36 124.84L113.641 121.56C115.828 119.373 119.373 119.373 121.56 121.56L124.841 124.84C127.028 127.027 130.573 127.027 132.76 124.84L136.041 121.56C138.228 119.373 141.773 119.373 143.96 121.56L147.241 124.84C149.428 127.027 152.973 127.027 155.16 124.84L158.441 121.56C160.628 119.373 164.173 119.373 166.36 121.56L169.641 124.84C171.828 127.027 175.373 127.027 177.56 124.84L180.841 121.56C183.028 119.373 186.573 119.373 188.76 121.56L190.401 123.2" stroke="#39312D" stroke-width="1.4"/>
<path d="M11.1994 123.2L12.8396 124.84C15.0266 127.027 18.5723 127.027 20.7592 124.84L24.0396 121.56C26.2266 119.373 29.7723 119.373 31.9592 121.56L35.2396 124.84C37.4266 127.027 40.9723 127.027 43.1592 124.84L46.4396 121.56C48.6266 119.373 52.1723 119.373 54.3592 121.56L57.6396 124.84C59.8266 127.027 63.3723 127.027 65.5592 124.84L68.8396 121.56C71.0266 119.373 74.5723 119.373 76.7592 121.56L80.0396 124.84C82.2266 127.027 85.7723 127.027 87.9592 124.84L91.2396 121.56C93.4266 119.373 96.9723 119.373 99.1592 121.56L100.799 123.2" stroke="#39312D" stroke-width="1.4"/>
<path d="M-78.3999 123.2L-76.7597 124.84C-74.5728 127.027 -71.027 127.027 -68.8401 124.84L-65.5597 121.56C-63.3728 119.373 -59.827 119.373 -57.6401 121.56L-54.3597 124.84C-52.1728 127.027 -48.627 127.027 -46.4401 124.84L-43.1597 121.56C-40.9728 119.373 -37.427 119.373 -35.2401 121.56L-31.9597 124.84C-29.7728 127.027 -26.227 127.027 -24.0401 124.84L-20.7597 121.56C-18.5728 119.373 -15.027 119.373 -12.8401 121.56L-9.5597 124.84C-7.37276 127.027 -3.82704 127.027 -1.6401 124.84L1.6403 121.56C3.82724 119.373 7.37296 119.373 9.5599 121.56L11.2001 123.2" stroke="#39312D" stroke-width="1.4"/>
<path d="M190.4 106.4L192.04 108.04C194.227 110.227 197.773 110.227 199.96 108.04L203.24 104.76C205.427 102.573 208.973 102.573 211.16 104.76L214.44 108.04C216.627 110.227 220.173 110.227 222.36 108.04L225.64 104.76C227.827 102.573 231.373 102.573 233.56 104.76L236.84 108.04C239.027 110.227 242.573 110.227 244.76 108.04L248.04 104.76C250.227 102.573 253.773 102.573 255.96 104.76L259.24 108.04C261.427 110.227 264.973 110.227 267.16 108.04L270.44 104.76C272.627 102.573 276.173 102.573 278.36 104.76L280 106.4" stroke="#39312D" stroke-width="1.4"/>
<path d="M100.801 106.4L102.441 108.041C104.628 110.228 108.173 110.228 110.36 108.041L113.641 104.76C115.828 102.573 119.373 102.573 121.56 104.76L124.841 108.041C127.028 110.228 130.573 110.228 132.76 108.041L136.041 104.76C138.228 102.573 141.773 102.573 143.96 104.76L147.241 108.041C149.428 110.228 152.973 110.228 155.16 108.041L158.441 104.76C160.628 102.573 164.173 102.573 166.36 104.76L169.641 108.041C171.828 110.228 175.373 110.228 177.56 108.041L180.841 104.76C183.028 102.573 186.573 102.573 188.76 104.76L190.401 106.4" stroke="#39312D" stroke-width="1.4"/>
<path d="M11.1994 106.4L12.8396 108.041C15.0266 110.228 18.5723 110.228 20.7592 108.041L24.0396 104.76C26.2266 102.573 29.7723 102.573 31.9592 104.76L35.2396 108.041C37.4266 110.228 40.9723 110.228 43.1592 108.041L46.4396 104.76C48.6266 102.573 52.1723 102.573 54.3592 104.76L57.6396 108.041C59.8266 110.228 63.3723 110.228 65.5592 108.041L68.8396 104.76C71.0266 102.573 74.5723 102.573 76.7592 104.76L80.0396 108.041C82.2266 110.228 85.7723 110.228 87.9592 108.041L91.2396 104.76C93.4266 102.573 96.9723 102.573 99.1592 104.76L100.799 106.4" stroke="#39312D" stroke-width="1.4"/>
<path d="M-78.3999 106.4L-76.7597 108.041C-74.5728 110.228 -71.027 110.228 -68.8401 108.041L-65.5597 104.76C-63.3728 102.573 -59.827 102.573 -57.6401 104.76L-54.3597 108.041C-52.1728 110.228 -48.627 110.228 -46.4401 108.041L-43.1597 104.76C-40.9728 102.573 -37.427 102.573 -35.2401 104.76L-31.9597 108.041C-29.7728 110.228 -26.227 110.228 -24.0401 108.041L-20.7597 104.76C-18.5728 102.573 -15.027 102.573 -12.8401 104.76L-9.5597 108.041C-7.37276 110.228 -3.82704 110.228 -1.6401 108.041L1.6403 104.76C3.82724 102.573 7.37296 102.573 9.5599 104.76L11.2001 106.4" stroke="#39312D" stroke-width="1.4"/>
<path d="M190.4 89.5999L192.04 91.2401C194.227 93.4271 197.773 93.4271 199.96 91.2401L203.24 87.9597C205.427 85.7728 208.973 85.7728 211.16 87.9597L214.44 91.2401C216.627 93.4271 220.173 93.4271 222.36 91.2401L225.64 87.9597C227.827 85.7728 231.373 85.7728 233.56 87.9597L236.84 91.2401C239.027 93.4271 242.573 93.4271 244.76 91.2401L248.04 87.9597C250.227 85.7728 253.773 85.7728 255.96 87.9597L259.24 91.2401C261.427 93.4271 264.973 93.4271 267.16 91.2401L270.44 87.9597C272.627 85.7728 276.173 85.7728 278.36 87.9597L280 89.5999" stroke="#39312D" stroke-width="1.4"/>
<path d="M100.801 89.5997L102.441 91.2399C104.628 93.4268 108.173 93.4268 110.36 91.2399L113.641 87.9595C115.828 85.7726 119.373 85.7726 121.56 87.9595L124.841 91.2399C127.028 93.4268 130.573 93.4268 132.76 91.2399L136.041 87.9595C138.228 85.7726 141.773 85.7726 143.96 87.9595L147.241 91.2399C149.428 93.4268 152.973 93.4268 155.16 91.2399L158.441 87.9595C160.628 85.7726 164.173 85.7726 166.36 87.9595L169.641 91.2399C171.828 93.4268 175.373 93.4268 177.56 91.2399L180.841 87.9595C183.028 85.7726 186.573 85.7726 188.76 87.9595L190.401 89.5997" stroke="#39312D" stroke-width="1.4"/>
<path d="M11.1994 89.5997L12.8396 91.2399C15.0266 93.4268 18.5723 93.4268 20.7592 91.2399L24.0396 87.9595C26.2266 85.7726 29.7723 85.7726 31.9592 87.9595L35.2396 91.2399C37.4266 93.4268 40.9723 93.4268 43.1592 91.2399L46.4396 87.9595C48.6266 85.7726 52.1723 85.7726 54.3592 87.9595L57.6396 91.2399C59.8266 93.4268 63.3723 93.4268 65.5592 91.2399L68.8396 87.9595C71.0266 85.7726 74.5723 85.7726 76.7592 87.9595L80.0396 91.2399C82.2266 93.4268 85.7723 93.4268 87.9592 91.2399L91.2396 87.9595C93.4266 85.7726 96.9723 85.7726 99.1592 87.9595L100.799 89.5997" stroke="#39312D" stroke-width="1.4"/>
<path d="M-78.3999 89.5997L-76.7597 91.2399C-74.5728 93.4268 -71.027 93.4268 -68.8401 91.2399L-65.5597 87.9595C-63.3728 85.7726 -59.827 85.7726 -57.6401 87.9595L-54.3597 91.2399C-52.1728 93.4268 -48.627 93.4268 -46.4401 91.2399L-43.1597 87.9595C-40.9728 85.7726 -37.427 85.7726 -35.2401 87.9595L-31.9597 91.2399C-29.7728 93.4268 -26.227 93.4268 -24.0401 91.2399L-20.7597 87.9595C-18.5728 85.7726 -15.027 85.7726 -12.8401 87.9595L-9.5597 91.2399C-7.37276 93.4268 -3.82704 93.4268 -1.6401 91.2399L1.6403 87.9595C3.82724 85.7726 7.37296 85.7726 9.5599 87.9595L11.2001 89.5997" stroke="#39312D" stroke-width="1.4"/>
<path d="M190.4 72.7999L192.04 74.4401C194.227 76.627 197.773 76.627 199.96 74.4401L203.24 71.1597C205.427 68.9728 208.973 68.9728 211.16 71.1597L214.44 74.4401C216.627 76.627 220.173 76.627 222.36 74.4401L225.64 71.1597C227.827 68.9728 231.373 68.9728 233.56 71.1597L236.84 74.4401C239.027 76.627 242.573 76.627 244.76 74.4401L248.04 71.1597C250.227 68.9728 253.773 68.9728 255.96 71.1597L259.24 74.4401C261.427 76.627 264.973 76.627 267.16 74.4401L270.44 71.1597C272.627 68.9728 276.173 68.9728 278.36 71.1597L280 72.7999" stroke="#39312D" stroke-width="1.4"/>
<path d="M100.801 72.7999L102.441 74.4401C104.628 76.6271 108.173 76.6271 110.36 74.4401L113.641 71.1597C115.828 68.9728 119.373 68.9728 121.56 71.1597L124.841 74.4401C127.028 76.6271 130.573 76.6271 132.76 74.4401L136.041 71.1597C138.228 68.9728 141.773 68.9728 143.96 71.1597L147.241 74.4401C149.428 76.6271 152.973 76.6271 155.16 74.4401L158.441 71.1597C160.628 68.9728 164.173 68.9728 166.36 71.1597L169.641 74.4401C171.828 76.6271 175.373 76.6271 177.56 74.4401L180.841 71.1597C183.028 68.9728 186.573 68.9728 188.76 71.1597L190.401 72.7999" stroke="#39312D" stroke-width="1.4"/>
<path d="M11.1994 72.7999L12.8396 74.4401C15.0266 76.6271 18.5723 76.6271 20.7592 74.4401L24.0396 71.1597C26.2266 68.9728 29.7723 68.9728 31.9592 71.1597L35.2396 74.4401C37.4266 76.6271 40.9723 76.6271 43.1592 74.4401L46.4396 71.1597C48.6266 68.9728 52.1723 68.9728 54.3592 71.1597L57.6396 74.4401C59.8266 76.6271 63.3723 76.6271 65.5592 74.4401L68.8396 71.1597C71.0266 68.9728 74.5723 68.9728 76.7592 71.1597L80.0396 74.4401C82.2266 76.6271 85.7723 76.6271 87.9592 74.4401L91.2396 71.1597C93.4266 68.9728 96.9723 68.9728 99.1592 71.1597L100.799 72.7999" stroke="#39312D" stroke-width="1.4"/>
<path d="M-78.3999 72.7999L-76.7597 74.4401C-74.5728 76.6271 -71.027 76.6271 -68.8401 74.4401L-65.5597 71.1597C-63.3728 68.9728 -59.827 68.9728 -57.6401 71.1597L-54.3597 74.4401C-52.1728 76.6271 -48.627 76.6271 -46.4401 74.4401L-43.1597 71.1597C-40.9728 68.9728 -37.427 68.9728 -35.2401 71.1597L-31.9597 74.4401C-29.7728 76.6271 -26.227 76.6271 -24.0401 74.4401L-20.7597 71.1597C-18.5728 68.9728 -15.027 68.9728 -12.8401 71.1597L-9.5597 74.4401C-7.37276 76.6271 -3.82704 76.6271 -1.6401 74.4401L1.6403 71.1597C3.82724 68.9728 7.37296 68.9728 9.5599 71.1597L11.2001 72.7999" stroke="#39312D" stroke-width="1.4"/>
<path d="M190.4 56L192.04 57.6402C194.227 59.8271 197.773 59.8271 199.96 57.6402L203.24 54.3598C205.427 52.1729 208.973 52.1729 211.16 54.3598L214.44 57.6402C216.627 59.8271 220.173 59.8271 222.36 57.6402L225.64 54.3598C227.827 52.1729 231.373 52.1729 233.56 54.3598L236.84 57.6402C239.027 59.8271 242.573 59.8271 244.76 57.6402L248.04 54.3598C250.227 52.1729 253.773 52.1729 255.96 54.3598L259.24 57.6402C261.427 59.8271 264.973 59.8271 267.16 57.6402L270.44 54.3598C272.627 52.1729 276.173 52.1729 278.36 54.3598L280 56" stroke="#39312D" stroke-width="1.4"/>
<path d="M100.801 56.0002L102.441 57.6404C104.628 59.8273 108.173 59.8273 110.36 57.6404L113.641 54.36C115.828 52.173 119.373 52.173 121.56 54.36L124.841 57.6404C127.028 59.8273 130.573 59.8273 132.76 57.6404L136.041 54.36C138.228 52.173 141.773 52.173 143.96 54.36L147.241 57.6404C149.428 59.8273 152.973 59.8273 155.16 57.6404L158.441 54.36C160.628 52.173 164.173 52.173 166.36 54.36L169.641 57.6404C171.828 59.8273 175.373 59.8273 177.56 57.6404L180.841 54.36C183.028 52.173 186.573 52.173 188.76 54.36L190.401 56.0002" stroke="#39312D" stroke-width="1.4"/>
<path d="M11.1994 56.0002L12.8396 57.6404C15.0266 59.8273 18.5723 59.8273 20.7592 57.6404L24.0396 54.36C26.2266 52.173 29.7723 52.173 31.9592 54.36L35.2396 57.6404C37.4266 59.8273 40.9723 59.8273 43.1592 57.6404L46.4396 54.36C48.6266 52.173 52.1723 52.173 54.3592 54.36L57.6396 57.6404C59.8266 59.8273 63.3723 59.8273 65.5592 57.6404L68.8396 54.36C71.0266 52.173 74.5723 52.173 76.7592 54.36L80.0396 57.6404C82.2266 59.8273 85.7723 59.8273 87.9592 57.6404L91.2396 54.36C93.4266 52.173 96.9723 52.173 99.1592 54.36L100.799 56.0002" stroke="#39312D" stroke-width="1.4"/>
<path d="M-78.3999 56.0002L-76.7597 57.6404C-74.5728 59.8273 -71.027 59.8273 -68.8401 57.6404L-65.5597 54.36C-63.3728 52.173 -59.827 52.173 -57.6401 54.36L-54.3597 57.6404C-52.1728 59.8273 -48.627 59.8273 -46.4401 57.6404L-43.1597 54.36C-40.9728 52.173 -37.427 52.173 -35.2401 54.36L-31.9597 57.6404C-29.7728 59.8273 -26.227 59.8273 -24.0401 57.6404L-20.7597 54.36C-18.5728 52.173 -15.027 52.173 -12.8401 54.36L-9.5597 57.6404C-7.37276 59.8273 -3.82704 59.8273 -1.6401 57.6404L1.6403 54.36C3.82724 52.173 7.37296 52.173 9.5599 54.36L11.2001 56.0002" stroke="#39312D" stroke-width="1.4"/>
<path d="M190.4 39.2L192.04 40.8402C194.227 43.0271 197.773 43.0271 199.96 40.8402L203.24 37.5598C205.427 35.3728 208.973 35.3728 211.16 37.5598L214.44 40.8402C216.627 43.0271 220.173 43.0271 222.36 40.8402L225.64 37.5598C227.827 35.3728 231.373 35.3728 233.56 37.5598L236.84 40.8402C239.027 43.0271 242.573 43.0271 244.76 40.8402L248.04 37.5598C250.227 35.3728 253.773 35.3728 255.96 37.5598L259.24 40.8402C261.427 43.0271 264.973 43.0271 267.16 40.8402L270.44 37.5598C272.627 35.3728 276.173 35.3728 278.36 37.5598L280 39.2" stroke="#39312D" stroke-width="1.4"/>
<path d="M100.801 39.2004L102.441 40.8406C104.628 43.0275 108.173 43.0275 110.36 40.8406L113.641 37.5602C115.828 35.3732 119.373 35.3732 121.56 37.5602L124.841 40.8406C127.028 43.0275 130.573 43.0275 132.76 40.8406L136.041 37.5602C138.228 35.3732 141.773 35.3732 143.96 37.5602L147.241 40.8406C149.428 43.0275 152.973 43.0275 155.16 40.8406L158.441 37.5602C160.628 35.3732 164.173 35.3732 166.36 37.5602L169.641 40.8406C171.828 43.0275 175.373 43.0275 177.56 40.8406L180.841 37.5602C183.028 35.3732 186.573 35.3732 188.76 37.5602L190.401 39.2004" stroke="#39312D" stroke-width="1.4"/>
<path d="M11.1994 39.2004L12.8396 40.8406C15.0266 43.0275 18.5723 43.0275 20.7592 40.8406L24.0396 37.5602C26.2266 35.3732 29.7723 35.3732 31.9592 37.5602L35.2396 40.8406C37.4266 43.0275 40.9723 43.0275 43.1592 40.8406L46.4396 37.5602C48.6266 35.3732 52.1723 35.3732 54.3592 37.5602L57.6396 40.8406C59.8266 43.0275 63.3723 43.0275 65.5592 40.8406L68.8396 37.5602C71.0266 35.3732 74.5723 35.3732 76.7592 37.5602L80.0396 40.8406C82.2266 43.0275 85.7723 43.0275 87.9592 40.8406L91.2396 37.5602C93.4266 35.3732 96.9723 35.3732 99.1592 37.5602L100.799 39.2004" stroke="#39312D" stroke-width="1.4"/>
<path d="M-78.3999 39.2004L-76.7597 40.8406C-74.5728 43.0275 -71.027 43.0275 -68.8401 40.8406L-65.5597 37.5602C-63.3728 35.3732 -59.827 35.3732 -57.6401 37.5602L-54.3597 40.8406C-52.1728 43.0275 -48.627 43.0275 -46.4401 40.8406L-43.1597 37.5602C-40.9728 35.3732 -37.427 35.3732 -35.2401 37.5602L-31.9597 40.8406C-29.7728 43.0275 -26.227 43.0275 -24.0401 40.8406L-20.7597 37.5602C-18.5728 35.3732 -15.027 35.3732 -12.8401 37.5602L-9.5597 40.8406C-7.37276 43.0275 -3.82704 43.0275 -1.6401 40.8406L1.6403 37.5602C3.82724 35.3732 7.37296 35.3732 9.5599 37.5602L11.2001 39.2004" stroke="#39312D" stroke-width="1.4"/>
<path d="M190.4 22.4L192.04 24.0402C194.227 26.2271 197.773 26.2271 199.96 24.0402L203.24 20.7598C205.427 18.5729 208.973 18.5729 211.16 20.7598L214.44 24.0402C216.627 26.2271 220.173 26.2271 222.36 24.0402L225.64 20.7598C227.827 18.5729 231.373 18.5729 233.56 20.7598L236.84 24.0402C239.027 26.2271 242.573 26.2271 244.76 24.0402L248.04 20.7598C250.227 18.5729 253.773 18.5729 255.96 20.7598L259.24 24.0402C261.427 26.2271 264.973 26.2271 267.16 24.0402L270.44 20.7598C272.627 18.5729 276.173 18.5729 278.36 20.7598L280 22.4" stroke="#39312D" stroke-width="1.4"/>
<path d="M100.801 22.3997L102.441 24.0399C104.628 26.2268 108.173 26.2268 110.36 24.0399L113.641 20.7595C115.828 18.5726 119.373 18.5726 121.56 20.7595L124.841 24.0399C127.028 26.2268 130.573 26.2268 132.76 24.0399L136.041 20.7595C138.228 18.5726 141.773 18.5726 143.96 20.7595L147.241 24.0399C149.428 26.2268 152.973 26.2268 155.16 24.0399L158.441 20.7595C160.628 18.5726 164.173 18.5726 166.36 20.7595L169.641 24.0399C171.828 26.2268 175.373 26.2268 177.56 24.0399L180.841 20.7595C183.028 18.5726 186.573 18.5726 188.76 20.7595L190.401 22.3997" stroke="#39312D" stroke-width="1.4"/>
<path d="M11.1994 22.3997L12.8396 24.0399C15.0266 26.2268 18.5723 26.2268 20.7592 24.0399L24.0396 20.7595C26.2266 18.5726 29.7723 18.5726 31.9592 20.7595L35.2396 24.0399C37.4266 26.2268 40.9723 26.2268 43.1592 24.0399L46.4396 20.7595C48.6266 18.5726 52.1723 18.5726 54.3592 20.7595L57.6396 24.0399C59.8266 26.2268 63.3723 26.2268 65.5592 24.0399L68.8396 20.7595C71.0266 18.5726 74.5723 18.5726 76.7592 20.7595L80.0396 24.0399C82.2266 26.2268 85.7723 26.2268 87.9592 24.0399L91.2396 20.7595C93.4266 18.5726 96.9723 18.5726 99.1592 20.7595L100.799 22.3997" stroke="#39312D" stroke-width="1.4"/>
<path d="M-78.3999 22.3997L-76.7597 24.0399C-74.5728 26.2268 -71.027 26.2268 -68.8401 24.0399L-65.5597 20.7595C-63.3728 18.5726 -59.827 18.5726 -57.6401 20.7595L-54.3597 24.0399C-52.1728 26.2268 -48.627 26.2268 -46.4401 24.0399L-43.1597 20.7595C-40.9728 18.5726 -37.427 18.5726 -35.2401 20.7595L-31.9597 24.0399C-29.7728 26.2268 -26.227 26.2268 -24.0401 24.0399L-20.7597 20.7595C-18.5728 18.5726 -15.027 18.5726 -12.8401 20.7595L-9.5597 24.0399C-7.37276 26.2268 -3.82704 26.2268 -1.6401 24.0399L1.6403 20.7595C3.82724 18.5726 7.37296 18.5726 9.5599 20.7595L11.2001 22.3997" stroke="#39312D" stroke-width="1.4"/>
<path d="M190.4 5.60001L192.04 7.24021C194.227 9.42715 197.773 9.42715 199.96 7.24022L203.24 3.95981C205.427 1.77287 208.973 1.77287 211.16 3.95981L214.44 7.24021C216.627 9.42715 220.173 9.42715 222.36 7.24022L225.64 3.95981C227.827 1.77287 231.373 1.77287 233.56 3.95981L236.84 7.24021C239.027 9.42715 242.573 9.42715 244.76 7.24022L248.04 3.95981C250.227 1.77287 253.773 1.77287 255.96 3.95981L259.24 7.24021C261.427 9.42715 264.973 9.42715 267.16 7.24022L270.44 3.95981C272.627 1.77287 276.173 1.77287 278.36 3.95981L280 5.60001" stroke="#39312D" stroke-width="1.4"/>
<path d="M100.801 5.59989L102.441 7.24009C104.628 9.42703 108.173 9.42703 110.36 7.24009L113.641 3.95969C115.828 1.77275 119.373 1.77275 121.56 3.95969L124.841 7.24009C127.028 9.42703 130.573 9.42703 132.76 7.24009L136.041 3.95969C138.228 1.77275 141.773 1.77275 143.96 3.95969L147.241 7.24009C149.428 9.42703 152.973 9.42703 155.16 7.24009L158.441 3.95969C160.628 1.77275 164.173 1.77275 166.36 3.95969L169.641 7.24009C171.828 9.42703 175.373 9.42703 177.56 7.24009L180.841 3.95969C183.028 1.77275 186.573 1.77275 188.76 3.95969L190.401 5.59989" stroke="#39312D" stroke-width="1.4"/>
<path d="M11.1994 5.59989L12.8396 7.24009C15.0266 9.42703 18.5723 9.42703 20.7592 7.24009L24.0396 3.95969C26.2266 1.77275 29.7723 1.77275 31.9592 3.95969L35.2396 7.24009C37.4266 9.42703 40.9723 9.42703 43.1592 7.24009L46.4396 3.95969C48.6266 1.77275 52.1723 1.77275 54.3592 3.95969L57.6396 7.24009C59.8266 9.42703 63.3723 9.42703 65.5592 7.24009L68.8396 3.95969C71.0266 1.77275 74.5723 1.77275 76.7592 3.95969L80.0396 7.24009C82.2266 9.42703 85.7723 9.42703 87.9592 7.24009L91.2396 3.95969C93.4266 1.77275 96.9723 1.77275 99.1592 3.95969L100.799 5.59989" stroke="#39312D" stroke-width="1.4"/>
<path d="M-78.3999 5.59989L-76.7597 7.24009C-74.5728 9.42703 -71.027 9.42703 -68.8401 7.24009L-65.5597 3.95969C-63.3728 1.77275 -59.827 1.77275 -57.6401 3.95969L-54.3597 7.24009C-52.1728 9.42703 -48.627 9.42703 -46.4401 7.24009L-43.1597 3.95969C-40.9728 1.77275 -37.427 1.77275 -35.2401 3.95969L-31.9597 7.24009C-29.7728 9.42703 -26.227 9.42703 -24.0401 7.24009L-20.7597 3.95969C-18.5728 1.77275 -15.027 1.77275 -12.8401 3.95969L-9.5597 7.24009C-7.37276 9.42703 -3.82704 9.42703 -1.6401 7.24009L1.6403 3.95969C3.82724 1.77275 7.37296 1.77275 9.5599 3.95969L11.2001 5.59989" stroke="#39312D" stroke-width="1.4"/>
</g>
</g>
</svg>
