<svg width="280" height="280" viewBox="0 0 280 280" fill="none" xmlns="http://www.w3.org/2000/svg">
<g opacity="0.16">
<mask id="mask0" mask-type="alpha" maskUnits="userSpaceOnUse" x="0" y="0" width="280" height="280">
<path d="M0.35 279.65H140C217.127 279.65 279.65 217.127 279.65 140C279.65 62.8734 217.127 0.350006 140 0.350006H0.35L0.35 279.65Z" fill="#39312D" stroke="#39312D" stroke-width="0.7"/>
</mask>
<g mask="url(#mask0)">
<path d="M89.6 274.4L87.9598 276.04C85.7729 278.227 82.2271 278.227 80.0402 276.04L76.7598 272.76C74.5729 270.573 71.0271 270.573 68.8402 272.76L65.5598 276.04C63.3729 278.227 59.8271 278.227 57.6402 276.04L54.3598 272.76C52.1729 270.573 48.6271 270.573 46.4402 272.76L43.1598 276.04C40.9729 278.227 37.4271 278.227 35.2402 276.04L31.9598 272.76C29.7729 270.573 26.2271 270.573 24.0402 272.76L20.7598 276.04C18.5729 278.227 15.0271 278.227 12.8402 276.04L9.5598 272.76C7.37286 270.573 3.82714 270.573 1.6402 272.76L0 274.4" stroke="#39312D" stroke-width="1.4"/>
<path d="M179.199 274.4L177.559 276.04C175.372 278.227 171.826 278.227 169.64 276.04L166.359 272.76C164.172 270.573 160.626 270.573 158.44 272.76L155.159 276.04C152.972 278.227 149.426 278.227 147.24 276.04L143.959 272.76C141.772 270.573 138.226 270.573 136.04 272.76L132.759 276.04C130.572 278.227 127.026 278.227 124.84 276.04L121.559 272.76C119.372 270.573 115.826 270.573 113.64 272.76L110.359 276.04C108.172 278.227 104.626 278.227 102.44 276.04L99.1591 272.76C96.9722 270.573 93.4265 270.573 91.2395 272.76L89.5993 274.4" stroke="#39312D" stroke-width="1.4"/>
<path d="M268.801 274.4L267.16 276.04C264.973 278.227 261.428 278.227 259.241 276.04L255.96 272.76C253.773 270.573 250.228 270.573 248.041 272.76L244.76 276.04C242.573 278.227 239.028 278.227 236.841 276.04L233.56 272.76C231.373 270.573 227.828 270.573 225.641 272.76L222.36 276.04C220.173 278.227 216.628 278.227 214.441 276.04L211.16 272.76C208.973 270.573 205.428 270.573 203.241 272.76L199.96 276.04C197.773 278.227 194.228 278.227 192.041 276.04L188.76 272.76C186.573 270.573 183.028 270.573 180.841 272.76L179.201 274.4" stroke="#39312D" stroke-width="1.4"/>
<path d="M358.4 274.4L356.76 276.04C354.573 278.227 351.027 278.227 348.84 276.04L345.56 272.76C343.373 270.573 339.827 270.573 337.64 272.76L334.36 276.04C332.173 278.227 328.627 278.227 326.44 276.04L323.16 272.76C320.973 270.573 317.427 270.573 315.24 272.76L311.96 276.04C309.773 278.227 306.227 278.227 304.04 276.04L300.76 272.76C298.573 270.573 295.027 270.573 292.84 272.76L289.56 276.04C287.373 278.227 283.827 278.227 281.64 276.04L278.36 272.76C276.173 270.573 272.627 270.573 270.44 272.76L268.8 274.4" stroke="#39312D" stroke-width="1.4"/>
<path d="M89.6 257.6L87.9598 259.24C85.7729 261.427 82.2271 261.427 80.0402 259.24L76.7598 255.96C74.5729 253.773 71.0271 253.773 68.8402 255.96L65.5598 259.24C63.3729 261.427 59.8271 261.427 57.6402 259.24L54.3598 255.96C52.1729 253.773 48.6271 253.773 46.4402 255.96L43.1598 259.24C40.9729 261.427 37.4271 261.427 35.2402 259.24L31.9598 255.96C29.7729 253.773 26.2271 253.773 24.0402 255.96L20.7598 259.24C18.5729 261.427 15.0271 261.427 12.8402 259.24L9.5598 255.96C7.37286 253.773 3.82714 253.773 1.6402 255.96L0 257.6" stroke="#39312D" stroke-width="1.4"/>
<path d="M179.199 257.6L177.559 259.24C175.372 261.427 171.826 261.427 169.64 259.24L166.359 255.96C164.172 253.773 160.626 253.773 158.44 255.96L155.159 259.24C152.972 261.427 149.426 261.427 147.24 259.24L143.959 255.96C141.772 253.773 138.226 253.773 136.04 255.96L132.759 259.24C130.572 261.427 127.026 261.427 124.84 259.24L121.559 255.96C119.372 253.773 115.826 253.773 113.64 255.96L110.359 259.24C108.172 261.427 104.626 261.427 102.44 259.24L99.1591 255.96C96.9722 253.773 93.4265 253.773 91.2395 255.96L89.5993 257.6" stroke="#39312D" stroke-width="1.4"/>
<path d="M268.801 257.6L267.16 259.24C264.973 261.427 261.428 261.427 259.241 259.24L255.96 255.96C253.773 253.773 250.228 253.773 248.041 255.96L244.76 259.24C242.573 261.427 239.028 261.427 236.841 259.24L233.56 255.96C231.373 253.773 227.828 253.773 225.641 255.96L222.36 259.24C220.173 261.427 216.628 261.427 214.441 259.24L211.16 255.96C208.973 253.773 205.428 253.773 203.241 255.96L199.96 259.24C197.773 261.427 194.228 261.427 192.041 259.24L188.76 255.96C186.573 253.773 183.028 253.773 180.841 255.96L179.201 257.6" stroke="#39312D" stroke-width="1.4"/>
<path d="M358.4 257.6L356.76 259.24C354.573 261.427 351.027 261.427 348.84 259.24L345.56 255.96C343.373 253.773 339.827 253.773 337.64 255.96L334.36 259.24C332.173 261.427 328.627 261.427 326.44 259.24L323.16 255.96C320.973 253.773 317.427 253.773 315.24 255.96L311.96 259.24C309.773 261.427 306.227 261.427 304.04 259.24L300.76 255.96C298.573 253.773 295.027 253.773 292.84 255.96L289.56 259.24C287.373 261.427 283.827 261.427 281.64 259.24L278.36 255.96C276.173 253.773 272.627 253.773 270.44 255.96L268.8 257.6" stroke="#39312D" stroke-width="1.4"/>
<path d="M89.6 240.8L87.9598 242.44C85.7729 244.627 82.2271 244.627 80.0402 242.44L76.7598 239.159C74.5729 236.972 71.0271 236.972 68.8402 239.159L65.5598 242.44C63.3729 244.627 59.8271 244.627 57.6402 242.44L54.3598 239.159C52.1729 236.972 48.6271 236.972 46.4402 239.159L43.1598 242.44C40.9729 244.627 37.4271 244.627 35.2402 242.44L31.9598 239.159C29.7729 236.972 26.2271 236.972 24.0402 239.159L20.7598 242.44C18.5729 244.627 15.0271 244.627 12.8402 242.44L9.5598 239.159C7.37286 236.972 3.82714 236.972 1.6402 239.159L0 240.8" stroke="#39312D" stroke-width="1.4"/>
<path d="M179.199 240.8L177.559 242.441C175.372 244.628 171.826 244.628 169.64 242.441L166.359 239.16C164.172 236.973 160.626 236.973 158.44 239.16L155.159 242.441C152.972 244.628 149.426 244.628 147.24 242.441L143.959 239.16C141.772 236.973 138.226 236.973 136.04 239.16L132.759 242.441C130.572 244.628 127.026 244.628 124.84 242.441L121.559 239.16C119.372 236.973 115.826 236.973 113.64 239.16L110.359 242.441C108.172 244.628 104.626 244.628 102.44 242.441L99.1591 239.16C96.9722 236.973 93.4265 236.973 91.2395 239.16L89.5993 240.8" stroke="#39312D" stroke-width="1.4"/>
<path d="M268.801 240.8L267.16 242.441C264.973 244.628 261.428 244.628 259.241 242.441L255.96 239.16C253.773 236.973 250.228 236.973 248.041 239.16L244.76 242.441C242.573 244.628 239.028 244.628 236.841 242.441L233.56 239.16C231.373 236.973 227.828 236.973 225.641 239.16L222.36 242.441C220.173 244.628 216.628 244.628 214.441 242.441L211.16 239.16C208.973 236.973 205.428 236.973 203.241 239.16L199.96 242.441C197.773 244.628 194.228 244.628 192.041 242.441L188.76 239.16C186.573 236.973 183.028 236.973 180.841 239.16L179.201 240.8" stroke="#39312D" stroke-width="1.4"/>
<path d="M358.4 240.8L356.76 242.441C354.573 244.628 351.027 244.628 348.84 242.441L345.56 239.16C343.373 236.973 339.827 236.973 337.64 239.16L334.36 242.441C332.173 244.628 328.627 244.628 326.44 242.441L323.16 239.16C320.973 236.973 317.427 236.973 315.24 239.16L311.96 242.441C309.773 244.628 306.227 244.628 304.04 242.441L300.76 239.16C298.573 236.973 295.027 236.973 292.84 239.16L289.56 242.441C287.373 244.628 283.827 244.628 281.64 242.441L278.36 239.16C276.173 236.973 272.627 236.973 270.44 239.16L268.8 240.8" stroke="#39312D" stroke-width="1.4"/>
<path d="M89.6 224L87.9598 225.641C85.7729 227.828 82.2271 227.828 80.0402 225.641L76.7598 222.36C74.5729 220.173 71.0271 220.173 68.8402 222.36L65.5598 225.641C63.3729 227.828 59.8271 227.828 57.6402 225.641L54.3598 222.36C52.1729 220.173 48.6271 220.173 46.4402 222.36L43.1598 225.641C40.9729 227.828 37.4271 227.828 35.2402 225.641L31.9598 222.36C29.7729 220.173 26.2271 220.173 24.0402 222.36L20.7598 225.641C18.5729 227.828 15.0271 227.828 12.8402 225.641L9.5598 222.36C7.37286 220.173 3.82714 220.173 1.6402 222.36L0 224" stroke="#39312D" stroke-width="1.4"/>
<path d="M179.199 224L177.559 225.64C175.372 227.827 171.826 227.827 169.64 225.64L166.359 222.36C164.172 220.173 160.626 220.173 158.44 222.36L155.159 225.64C152.972 227.827 149.426 227.827 147.24 225.64L143.959 222.36C141.772 220.173 138.226 220.173 136.04 222.36L132.759 225.64C130.572 227.827 127.026 227.827 124.84 225.64L121.559 222.36C119.372 220.173 115.826 220.173 113.64 222.36L110.359 225.64C108.172 227.827 104.626 227.827 102.44 225.64L99.1591 222.36C96.9722 220.173 93.4265 220.173 91.2395 222.36L89.5993 224" stroke="#39312D" stroke-width="1.4"/>
<path d="M268.801 224L267.16 225.64C264.973 227.827 261.428 227.827 259.241 225.64L255.96 222.36C253.773 220.173 250.228 220.173 248.041 222.36L244.76 225.64C242.573 227.827 239.028 227.827 236.841 225.64L233.56 222.36C231.373 220.173 227.828 220.173 225.641 222.36L222.36 225.64C220.173 227.827 216.628 227.827 214.441 225.64L211.16 222.36C208.973 220.173 205.428 220.173 203.241 222.36L199.96 225.64C197.773 227.827 194.228 227.827 192.041 225.64L188.76 222.36C186.573 220.173 183.028 220.173 180.841 222.36L179.201 224" stroke="#39312D" stroke-width="1.4"/>
<path d="M358.4 224L356.76 225.64C354.573 227.827 351.027 227.827 348.84 225.64L345.56 222.36C343.373 220.173 339.827 220.173 337.64 222.36L334.36 225.64C332.173 227.827 328.627 227.827 326.44 225.64L323.16 222.36C320.973 220.173 317.427 220.173 315.24 222.36L311.96 225.64C309.773 227.827 306.227 227.827 304.04 225.64L300.76 222.36C298.573 220.173 295.027 220.173 292.84 222.36L289.56 225.64C287.373 227.827 283.827 227.827 281.64 225.64L278.36 222.36C276.173 220.173 272.627 220.173 270.44 222.36L268.8 224" stroke="#39312D" stroke-width="1.4"/>
<path d="M89.6 207.2L87.9598 208.84C85.7729 211.027 82.2271 211.027 80.0402 208.84L76.7598 205.56C74.5729 203.373 71.0271 203.373 68.8402 205.56L65.5598 208.84C63.3729 211.027 59.8271 211.027 57.6402 208.84L54.3598 205.56C52.1729 203.373 48.6271 203.373 46.4402 205.56L43.1598 208.84C40.9729 211.027 37.4271 211.027 35.2402 208.84L31.9598 205.56C29.7729 203.373 26.2271 203.373 24.0402 205.56L20.7598 208.84C18.5729 211.027 15.0271 211.027 12.8402 208.84L9.5598 205.56C7.37286 203.373 3.82714 203.373 1.6402 205.56L0 207.2" stroke="#39312D" stroke-width="1.4"/>
<path d="M179.199 207.2L177.559 208.84C175.372 211.027 171.826 211.027 169.64 208.84L166.359 205.56C164.172 203.373 160.626 203.373 158.44 205.56L155.159 208.84C152.972 211.027 149.426 211.027 147.24 208.84L143.959 205.56C141.772 203.373 138.226 203.373 136.04 205.56L132.759 208.84C130.572 211.027 127.026 211.027 124.84 208.84L121.559 205.56C119.372 203.373 115.826 203.373 113.64 205.56L110.359 208.84C108.172 211.027 104.626 211.027 102.44 208.84L99.1591 205.56C96.9722 203.373 93.4265 203.373 91.2395 205.56L89.5993 207.2" stroke="#39312D" stroke-width="1.4"/>
<path d="M268.801 207.2L267.16 208.84C264.973 211.027 261.428 211.027 259.241 208.84L255.96 205.56C253.773 203.373 250.228 203.373 248.041 205.56L244.76 208.84C242.573 211.027 239.028 211.027 236.841 208.84L233.56 205.56C231.373 203.373 227.828 203.373 225.641 205.56L222.36 208.84C220.173 211.027 216.628 211.027 214.441 208.84L211.16 205.56C208.973 203.373 205.428 203.373 203.241 205.56L199.96 208.84C197.773 211.027 194.228 211.027 192.041 208.84L188.76 205.56C186.573 203.373 183.028 203.373 180.841 205.56L179.201 207.2" stroke="#39312D" stroke-width="1.4"/>
<path d="M358.4 207.2L356.76 208.84C354.573 211.027 351.027 211.027 348.84 208.84L345.56 205.56C343.373 203.373 339.827 203.373 337.64 205.56L334.36 208.84C332.173 211.027 328.627 211.027 326.44 208.84L323.16 205.56C320.973 203.373 317.427 203.373 315.24 205.56L311.96 208.84C309.773 211.027 306.227 211.027 304.04 208.84L300.76 205.56C298.573 203.373 295.027 203.373 292.84 205.56L289.56 208.84C287.373 211.027 283.827 211.027 281.64 208.84L278.36 205.56C276.173 203.373 272.627 203.373 270.44 205.56L268.8 207.2" stroke="#39312D" stroke-width="1.4"/>
<path d="M89.6 190.4L87.9598 192.04C85.7729 194.227 82.2271 194.227 80.0402 192.04L76.7598 188.76C74.5729 186.573 71.0271 186.573 68.8402 188.76L65.5598 192.04C63.3729 194.227 59.8271 194.227 57.6402 192.04L54.3598 188.76C52.1729 186.573 48.6271 186.573 46.4402 188.76L43.1598 192.04C40.9729 194.227 37.4271 194.227 35.2402 192.04L31.9598 188.76C29.7729 186.573 26.2271 186.573 24.0402 188.76L20.7598 192.04C18.5729 194.227 15.0271 194.227 12.8402 192.04L9.5598 188.76C7.37286 186.573 3.82714 186.573 1.6402 188.76L0 190.4" stroke="#39312D" stroke-width="1.4"/>
<path d="M179.199 190.4L177.559 192.04C175.372 194.227 171.826 194.227 169.64 192.04L166.359 188.76C164.172 186.573 160.626 186.573 158.44 188.76L155.159 192.04C152.972 194.227 149.426 194.227 147.24 192.04L143.959 188.76C141.772 186.573 138.226 186.573 136.04 188.76L132.759 192.04C130.572 194.227 127.026 194.227 124.84 192.04L121.559 188.76C119.372 186.573 115.826 186.573 113.64 188.76L110.359 192.04C108.172 194.227 104.626 194.227 102.44 192.04L99.1591 188.76C96.9722 186.573 93.4265 186.573 91.2395 188.76L89.5993 190.4" stroke="#39312D" stroke-width="1.4"/>
<path d="M268.801 190.4L267.16 192.04C264.973 194.227 261.428 194.227 259.241 192.04L255.96 188.76C253.773 186.573 250.228 186.573 248.041 188.76L244.76 192.04C242.573 194.227 239.028 194.227 236.841 192.04L233.56 188.76C231.373 186.573 227.828 186.573 225.641 188.76L222.36 192.04C220.173 194.227 216.628 194.227 214.441 192.04L211.16 188.76C208.973 186.573 205.428 186.573 203.241 188.76L199.96 192.04C197.773 194.227 194.228 194.227 192.041 192.04L188.76 188.76C186.573 186.573 183.028 186.573 180.841 188.76L179.201 190.4" stroke="#39312D" stroke-width="1.4"/>
<path d="M358.4 190.4L356.76 192.04C354.573 194.227 351.027 194.227 348.84 192.04L345.56 188.76C343.373 186.573 339.827 186.573 337.64 188.76L334.36 192.04C332.173 194.227 328.627 194.227 326.44 192.04L323.16 188.76C320.973 186.573 317.427 186.573 315.24 188.76L311.96 192.04C309.773 194.227 306.227 194.227 304.04 192.04L300.76 188.76C298.573 186.573 295.027 186.573 292.84 188.76L289.56 192.04C287.373 194.227 283.827 194.227 281.64 192.04L278.36 188.76C276.173 186.573 272.627 186.573 270.44 188.76L268.8 190.4" stroke="#39312D" stroke-width="1.4"/>
<path d="M89.6 173.6L87.9598 175.24C85.7729 177.427 82.2271 177.427 80.0402 175.24L76.7598 171.959C74.5729 169.773 71.0271 169.773 68.8402 171.959L65.5598 175.24C63.3729 177.427 59.8271 177.427 57.6402 175.24L54.3598 171.959C52.1729 169.773 48.6271 169.773 46.4402 171.959L43.1598 175.24C40.9729 177.427 37.4271 177.427 35.2402 175.24L31.9598 171.959C29.7729 169.773 26.2271 169.773 24.0402 171.959L20.7598 175.24C18.5729 177.427 15.0271 177.427 12.8402 175.24L9.5598 171.959C7.37286 169.773 3.82714 169.773 1.6402 171.959L0 173.6" stroke="#39312D" stroke-width="1.4"/>
<path d="M179.199 173.6L177.559 175.241C175.372 177.428 171.826 177.428 169.64 175.241L166.359 171.96C164.172 169.773 160.626 169.773 158.44 171.96L155.159 175.241C152.972 177.428 149.426 177.428 147.24 175.241L143.959 171.96C141.772 169.773 138.226 169.773 136.04 171.96L132.759 175.241C130.572 177.428 127.026 177.428 124.84 175.241L121.559 171.96C119.372 169.773 115.826 169.773 113.64 171.96L110.359 175.241C108.172 177.428 104.626 177.428 102.44 175.241L99.1591 171.96C96.9722 169.773 93.4265 169.773 91.2395 171.96L89.5993 173.6" stroke="#39312D" stroke-width="1.4"/>
<path d="M268.801 173.6L267.16 175.241C264.973 177.428 261.428 177.428 259.241 175.241L255.96 171.96C253.773 169.773 250.228 169.773 248.041 171.96L244.76 175.241C242.573 177.428 239.028 177.428 236.841 175.241L233.56 171.96C231.373 169.773 227.828 169.773 225.641 171.96L222.36 175.241C220.173 177.428 216.628 177.428 214.441 175.241L211.16 171.96C208.973 169.773 205.428 169.773 203.241 171.96L199.96 175.241C197.773 177.428 194.228 177.428 192.041 175.241L188.76 171.96C186.573 169.773 183.028 169.773 180.841 171.96L179.201 173.6" stroke="#39312D" stroke-width="1.4"/>
<path d="M358.4 173.6L356.76 175.241C354.573 177.428 351.027 177.428 348.84 175.241L345.56 171.96C343.373 169.773 339.827 169.773 337.64 171.96L334.36 175.241C332.173 177.428 328.627 177.428 326.44 175.241L323.16 171.96C320.973 169.773 317.427 169.773 315.24 171.96L311.96 175.241C309.773 177.428 306.227 177.428 304.04 175.241L300.76 171.96C298.573 169.773 295.027 169.773 292.84 171.96L289.56 175.241C287.373 177.428 283.827 177.428 281.64 175.241L278.36 171.96C276.173 169.773 272.627 169.773 270.44 171.96L268.8 173.6" stroke="#39312D" stroke-width="1.4"/>
<path d="M89.6 156.8L87.9598 158.441C85.7729 160.628 82.2271 160.628 80.0402 158.441L76.7598 155.16C74.5729 152.973 71.0271 152.973 68.8402 155.16L65.5598 158.441C63.3729 160.628 59.8271 160.628 57.6402 158.441L54.3598 155.16C52.1729 152.973 48.6271 152.973 46.4402 155.16L43.1598 158.441C40.9729 160.628 37.4271 160.628 35.2402 158.441L31.9598 155.16C29.7729 152.973 26.2271 152.973 24.0402 155.16L20.7598 158.441C18.5729 160.628 15.0271 160.628 12.8402 158.441L9.5598 155.16C7.37286 152.973 3.82714 152.973 1.6402 155.16L0 156.8" stroke="#39312D" stroke-width="1.4"/>
<path d="M179.199 156.8L177.559 158.44C175.372 160.627 171.826 160.627 169.64 158.44L166.359 155.16C164.172 152.973 160.626 152.973 158.44 155.16L155.159 158.44C152.972 160.627 149.426 160.627 147.24 158.44L143.959 155.16C141.772 152.973 138.226 152.973 136.04 155.16L132.759 158.44C130.572 160.627 127.026 160.627 124.84 158.44L121.559 155.16C119.372 152.973 115.826 152.973 113.64 155.16L110.359 158.44C108.172 160.627 104.626 160.627 102.44 158.44L99.1591 155.16C96.9722 152.973 93.4265 152.973 91.2395 155.16L89.5993 156.8" stroke="#39312D" stroke-width="1.4"/>
<path d="M268.801 156.8L267.16 158.44C264.973 160.627 261.428 160.627 259.241 158.44L255.96 155.16C253.773 152.973 250.228 152.973 248.041 155.16L244.76 158.44C242.573 160.627 239.028 160.627 236.841 158.44L233.56 155.16C231.373 152.973 227.828 152.973 225.641 155.16L222.36 158.44C220.173 160.627 216.628 160.627 214.441 158.44L211.16 155.16C208.973 152.973 205.428 152.973 203.241 155.16L199.96 158.44C197.773 160.627 194.228 160.627 192.041 158.44L188.76 155.16C186.573 152.973 183.028 152.973 180.841 155.16L179.201 156.8" stroke="#39312D" stroke-width="1.4"/>
<path d="M358.4 156.8L356.76 158.44C354.573 160.627 351.027 160.627 348.84 158.44L345.56 155.16C343.373 152.973 339.827 152.973 337.64 155.16L334.36 158.44C332.173 160.627 328.627 160.627 326.44 158.44L323.16 155.16C320.973 152.973 317.427 152.973 315.24 155.16L311.96 158.44C309.773 160.627 306.227 160.627 304.04 158.44L300.76 155.16C298.573 152.973 295.027 152.973 292.84 155.16L289.56 158.44C287.373 160.627 283.827 160.627 281.64 158.44L278.36 155.16C276.173 152.973 272.627 152.973 270.44 155.16L268.8 156.8" stroke="#39312D" stroke-width="1.4"/>
<path d="M89.6 140L87.9598 141.64C85.7729 143.827 82.2271 143.827 80.0402 141.64L76.7598 138.359C74.5729 136.172 71.0271 136.172 68.8402 138.359L65.5598 141.64C63.3729 143.827 59.8271 143.827 57.6402 141.64L54.3598 138.359C52.1729 136.172 48.6271 136.172 46.4402 138.359L43.1598 141.64C40.9729 143.827 37.4271 143.827 35.2402 141.64L31.9598 138.359C29.7729 136.172 26.2271 136.172 24.0402 138.359L20.7598 141.64C18.5729 143.827 15.0271 143.827 12.8402 141.64L9.5598 138.359C7.37286 136.172 3.82714 136.172 1.6402 138.359L0 140" stroke="#39312D" stroke-width="1.4"/>
<path d="M179.199 140L177.559 141.64C175.372 143.827 171.826 143.827 169.64 141.64L166.359 138.36C164.172 136.173 160.626 136.173 158.44 138.36L155.159 141.64C152.972 143.827 149.426 143.827 147.24 141.64L143.959 138.36C141.772 136.173 138.226 136.173 136.04 138.36L132.759 141.64C130.572 143.827 127.026 143.827 124.84 141.64L121.559 138.36C119.372 136.173 115.826 136.173 113.64 138.36L110.359 141.64C108.172 143.827 104.626 143.827 102.44 141.64L99.1591 138.36C96.9722 136.173 93.4265 136.173 91.2395 138.36L89.5993 140" stroke="#39312D" stroke-width="1.4"/>
<path d="M268.801 140L267.16 141.64C264.973 143.827 261.428 143.827 259.241 141.64L255.96 138.36C253.773 136.173 250.228 136.173 248.041 138.36L244.76 141.64C242.573 143.827 239.028 143.827 236.841 141.64L233.56 138.36C231.373 136.173 227.828 136.173 225.641 138.36L222.36 141.64C220.173 143.827 216.628 143.827 214.441 141.64L211.16 138.36C208.973 136.173 205.428 136.173 203.241 138.36L199.96 141.64C197.773 143.827 194.228 143.827 192.041 141.64L188.76 138.36C186.573 136.173 183.028 136.173 180.841 138.36L179.201 140" stroke="#39312D" stroke-width="1.4"/>
<path d="M358.4 140L356.76 141.64C354.573 143.827 351.027 143.827 348.84 141.64L345.56 138.36C343.373 136.173 339.827 136.173 337.64 138.36L334.36 141.64C332.173 143.827 328.627 143.827 326.44 141.64L323.16 138.36C320.973 136.173 317.427 136.173 315.24 138.36L311.96 141.64C309.773 143.827 306.227 143.827 304.04 141.64L300.76 138.36C298.573 136.173 295.027 136.173 292.84 138.36L289.56 141.64C287.373 143.827 283.827 143.827 281.64 141.64L278.36 138.36C276.173 136.173 272.627 136.173 270.44 138.36L268.8 140" stroke="#39312D" stroke-width="1.4"/>
<path d="M89.6 123.2L87.9598 124.84C85.7729 127.027 82.2271 127.027 80.0402 124.84L76.7598 121.56C74.5729 119.373 71.0271 119.373 68.8402 121.56L65.5598 124.84C63.3729 127.027 59.8271 127.027 57.6402 124.84L54.3598 121.56C52.1729 119.373 48.6271 119.373 46.4402 121.56L43.1598 124.84C40.9729 127.027 37.4271 127.027 35.2402 124.84L31.9598 121.56C29.7729 119.373 26.2271 119.373 24.0402 121.56L20.7598 124.84C18.5729 127.027 15.0271 127.027 12.8402 124.84L9.5598 121.56C7.37286 119.373 3.82714 119.373 1.6402 121.56L0 123.2" stroke="#39312D" stroke-width="1.4"/>
<path d="M179.199 123.2L177.559 124.84C175.372 127.027 171.826 127.027 169.64 124.84L166.359 121.56C164.172 119.373 160.626 119.373 158.44 121.56L155.159 124.84C152.972 127.027 149.426 127.027 147.24 124.84L143.959 121.56C141.772 119.373 138.226 119.373 136.04 121.56L132.759 124.84C130.572 127.027 127.026 127.027 124.84 124.84L121.559 121.56C119.372 119.373 115.826 119.373 113.64 121.56L110.359 124.84C108.172 127.027 104.626 127.027 102.44 124.84L99.1591 121.56C96.9722 119.373 93.4265 119.373 91.2395 121.56L89.5993 123.2" stroke="#39312D" stroke-width="1.4"/>
<path d="M268.801 123.2L267.16 124.84C264.973 127.027 261.428 127.027 259.241 124.84L255.96 121.56C253.773 119.373 250.228 119.373 248.041 121.56L244.76 124.84C242.573 127.027 239.028 127.027 236.841 124.84L233.56 121.56C231.373 119.373 227.828 119.373 225.641 121.56L222.36 124.84C220.173 127.027 216.628 127.027 214.441 124.84L211.16 121.56C208.973 119.373 205.428 119.373 203.241 121.56L199.96 124.84C197.773 127.027 194.228 127.027 192.041 124.84L188.76 121.56C186.573 119.373 183.028 119.373 180.841 121.56L179.201 123.2" stroke="#39312D" stroke-width="1.4"/>
<path d="M358.4 123.2L356.76 124.84C354.573 127.027 351.027 127.027 348.84 124.84L345.56 121.56C343.373 119.373 339.827 119.373 337.64 121.56L334.36 124.84C332.173 127.027 328.627 127.027 326.44 124.84L323.16 121.56C320.973 119.373 317.427 119.373 315.24 121.56L311.96 124.84C309.773 127.027 306.227 127.027 304.04 124.84L300.76 121.56C298.573 119.373 295.027 119.373 292.84 121.56L289.56 124.84C287.373 127.027 283.827 127.027 281.64 124.84L278.36 121.56C276.173 119.373 272.627 119.373 270.44 121.56L268.8 123.2" stroke="#39312D" stroke-width="1.4"/>
<path d="M89.6 106.4L87.9598 108.04C85.7729 110.227 82.2271 110.227 80.0402 108.04L76.7598 104.76C74.5729 102.573 71.0271 102.573 68.8402 104.76L65.5598 108.04C63.3729 110.227 59.8271 110.227 57.6402 108.04L54.3598 104.76C52.1729 102.573 48.6271 102.573 46.4402 104.76L43.1598 108.04C40.9729 110.227 37.4271 110.227 35.2402 108.04L31.9598 104.76C29.7729 102.573 26.2271 102.573 24.0402 104.76L20.7598 108.04C18.5729 110.227 15.0271 110.227 12.8402 108.04L9.5598 104.76C7.37286 102.573 3.82714 102.573 1.6402 104.76L0 106.4" stroke="#39312D" stroke-width="1.4"/>
<path d="M179.199 106.4L177.559 108.041C175.372 110.228 171.826 110.228 169.64 108.041L166.359 104.76C164.172 102.573 160.626 102.573 158.44 104.76L155.159 108.041C152.972 110.228 149.426 110.228 147.24 108.041L143.959 104.76C141.772 102.573 138.226 102.573 136.04 104.76L132.759 108.041C130.572 110.228 127.026 110.228 124.84 108.041L121.559 104.76C119.372 102.573 115.826 102.573 113.64 104.76L110.359 108.041C108.172 110.228 104.626 110.228 102.44 108.041L99.1591 104.76C96.9722 102.573 93.4265 102.573 91.2395 104.76L89.5993 106.4" stroke="#39312D" stroke-width="1.4"/>
<path d="M268.801 106.4L267.16 108.041C264.973 110.228 261.428 110.228 259.241 108.041L255.96 104.76C253.773 102.573 250.228 102.573 248.041 104.76L244.76 108.041C242.573 110.228 239.028 110.228 236.841 108.041L233.56 104.76C231.373 102.573 227.828 102.573 225.641 104.76L222.36 108.041C220.173 110.228 216.628 110.228 214.441 108.041L211.16 104.76C208.973 102.573 205.428 102.573 203.241 104.76L199.96 108.041C197.773 110.228 194.228 110.228 192.041 108.041L188.76 104.76C186.573 102.573 183.028 102.573 180.841 104.76L179.201 106.4" stroke="#39312D" stroke-width="1.4"/>
<path d="M358.4 106.4L356.76 108.041C354.573 110.228 351.027 110.228 348.84 108.041L345.56 104.76C343.373 102.573 339.827 102.573 337.64 104.76L334.36 108.041C332.173 110.228 328.627 110.228 326.44 108.041L323.16 104.76C320.973 102.573 317.427 102.573 315.24 104.76L311.96 108.041C309.773 110.228 306.227 110.228 304.04 108.041L300.76 104.76C298.573 102.573 295.027 102.573 292.84 104.76L289.56 108.041C287.373 110.228 283.827 110.228 281.64 108.041L278.36 104.76C276.173 102.573 272.627 102.573 270.44 104.76L268.8 106.4" stroke="#39312D" stroke-width="1.4"/>
<path d="M89.6 89.5999L87.9598 91.2401C85.7729 93.4271 82.2271 93.4271 80.0402 91.2401L76.7598 87.9597C74.5729 85.7728 71.0271 85.7728 68.8402 87.9597L65.5598 91.2401C63.3729 93.4271 59.8271 93.4271 57.6402 91.2401L54.3598 87.9597C52.1729 85.7728 48.6271 85.7728 46.4402 87.9597L43.1598 91.2401C40.9729 93.4271 37.4271 93.4271 35.2402 91.2401L31.9598 87.9597C29.7729 85.7728 26.2271 85.7728 24.0402 87.9597L20.7598 91.2401C18.5729 93.4271 15.0271 93.4271 12.8402 91.2401L9.5598 87.9597C7.37286 85.7728 3.82714 85.7728 1.6402 87.9597L0 89.5999" stroke="#39312D" stroke-width="1.4"/>
<path d="M179.199 89.5997L177.559 91.2399C175.372 93.4268 171.826 93.4268 169.64 91.2399L166.359 87.9595C164.172 85.7726 160.626 85.7726 158.44 87.9595L155.159 91.2399C152.972 93.4268 149.426 93.4268 147.24 91.2399L143.959 87.9595C141.772 85.7726 138.226 85.7726 136.04 87.9595L132.759 91.2399C130.572 93.4268 127.026 93.4268 124.84 91.2399L121.559 87.9595C119.372 85.7726 115.826 85.7726 113.64 87.9595L110.359 91.2399C108.172 93.4268 104.626 93.4268 102.44 91.2399L99.1591 87.9595C96.9722 85.7726 93.4265 85.7726 91.2395 87.9595L89.5993 89.5997" stroke="#39312D" stroke-width="1.4"/>
<path d="M268.801 89.5997L267.16 91.2399C264.973 93.4268 261.428 93.4268 259.241 91.2399L255.96 87.9595C253.773 85.7726 250.228 85.7726 248.041 87.9595L244.76 91.2399C242.573 93.4268 239.028 93.4268 236.841 91.2399L233.56 87.9595C231.373 85.7726 227.828 85.7726 225.641 87.9595L222.36 91.2399C220.173 93.4268 216.628 93.4268 214.441 91.2399L211.16 87.9595C208.973 85.7726 205.428 85.7726 203.241 87.9595L199.96 91.2399C197.773 93.4268 194.228 93.4268 192.041 91.2399L188.76 87.9595C186.573 85.7726 183.028 85.7726 180.841 87.9595L179.201 89.5997" stroke="#39312D" stroke-width="1.4"/>
<path d="M358.4 89.5997L356.76 91.2399C354.573 93.4268 351.027 93.4268 348.84 91.2399L345.56 87.9595C343.373 85.7726 339.827 85.7726 337.64 87.9595L334.36 91.2399C332.173 93.4268 328.627 93.4268 326.44 91.2399L323.16 87.9595C320.973 85.7726 317.427 85.7726 315.24 87.9595L311.96 91.2399C309.773 93.4268 306.227 93.4268 304.04 91.2399L300.76 87.9595C298.573 85.7726 295.027 85.7726 292.84 87.9595L289.56 91.2399C287.373 93.4268 283.827 93.4268 281.64 91.2399L278.36 87.9595C276.173 85.7726 272.627 85.7726 270.44 87.9595L268.8 89.5997" stroke="#39312D" stroke-width="1.4"/>
<path d="M89.6 72.7999L87.9598 74.4401C85.7729 76.627 82.2271 76.627 80.0402 74.4401L76.7598 71.1597C74.5729 68.9728 71.0271 68.9728 68.8402 71.1597L65.5598 74.4401C63.3729 76.627 59.8271 76.627 57.6402 74.4401L54.3598 71.1597C52.1729 68.9728 48.6271 68.9728 46.4402 71.1597L43.1598 74.4401C40.9729 76.627 37.4271 76.627 35.2402 74.4401L31.9598 71.1597C29.7729 68.9728 26.2271 68.9728 24.0402 71.1597L20.7598 74.4401C18.5729 76.627 15.0271 76.627 12.8402 74.4401L9.5598 71.1597C7.37286 68.9728 3.82714 68.9728 1.6402 71.1597L0 72.7999" stroke="#39312D" stroke-width="1.4"/>
<path d="M179.199 72.7999L177.559 74.4401C175.372 76.6271 171.826 76.6271 169.64 74.4401L166.359 71.1597C164.172 68.9728 160.626 68.9728 158.44 71.1597L155.159 74.4401C152.972 76.6271 149.426 76.6271 147.24 74.4401L143.959 71.1597C141.772 68.9728 138.226 68.9728 136.04 71.1597L132.759 74.4401C130.572 76.6271 127.026 76.6271 124.84 74.4401L121.559 71.1597C119.372 68.9728 115.826 68.9728 113.64 71.1597L110.359 74.4401C108.172 76.6271 104.626 76.6271 102.44 74.4401L99.1591 71.1597C96.9722 68.9728 93.4265 68.9728 91.2395 71.1597L89.5993 72.7999" stroke="#39312D" stroke-width="1.4"/>
<path d="M268.801 72.7999L267.16 74.4401C264.973 76.6271 261.428 76.6271 259.241 74.4401L255.96 71.1597C253.773 68.9728 250.228 68.9728 248.041 71.1597L244.76 74.4401C242.573 76.6271 239.028 76.6271 236.841 74.4401L233.56 71.1597C231.373 68.9728 227.828 68.9728 225.641 71.1597L222.36 74.4401C220.173 76.6271 216.628 76.6271 214.441 74.4401L211.16 71.1597C208.973 68.9728 205.428 68.9728 203.241 71.1597L199.96 74.4401C197.773 76.6271 194.228 76.6271 192.041 74.4401L188.76 71.1597C186.573 68.9728 183.028 68.9728 180.841 71.1597L179.201 72.7999" stroke="#39312D" stroke-width="1.4"/>
<path d="M358.4 72.7999L356.76 74.4401C354.573 76.6271 351.027 76.6271 348.84 74.4401L345.56 71.1597C343.373 68.9728 339.827 68.9728 337.64 71.1597L334.36 74.4401C332.173 76.6271 328.627 76.6271 326.44 74.4401L323.16 71.1597C320.973 68.9728 317.427 68.9728 315.24 71.1597L311.96 74.4401C309.773 76.6271 306.227 76.6271 304.04 74.4401L300.76 71.1597C298.573 68.9728 295.027 68.9728 292.84 71.1597L289.56 74.4401C287.373 76.6271 283.827 76.6271 281.64 74.4401L278.36 71.1597C276.173 68.9728 272.627 68.9728 270.44 71.1597L268.8 72.7999" stroke="#39312D" stroke-width="1.4"/>
<path d="M89.6 56L87.9598 57.6402C85.7729 59.8271 82.2271 59.8271 80.0402 57.6402L76.7598 54.3598C74.5729 52.1729 71.0271 52.1729 68.8402 54.3598L65.5598 57.6402C63.3729 59.8271 59.8271 59.8271 57.6402 57.6402L54.3598 54.3598C52.1729 52.1729 48.6271 52.1729 46.4402 54.3598L43.1598 57.6402C40.9729 59.8271 37.4271 59.8271 35.2402 57.6402L31.9598 54.3598C29.7729 52.1729 26.2271 52.1729 24.0402 54.3598L20.7598 57.6402C18.5729 59.8271 15.0271 59.8271 12.8402 57.6402L9.5598 54.3598C7.37286 52.1729 3.82714 52.1729 1.6402 54.3598L0 56" stroke="#39312D" stroke-width="1.4"/>
<path d="M179.199 56.0002L177.559 57.6404C175.372 59.8273 171.826 59.8273 169.64 57.6404L166.359 54.36C164.172 52.173 160.626 52.173 158.44 54.36L155.159 57.6404C152.972 59.8273 149.426 59.8273 147.24 57.6404L143.959 54.36C141.772 52.173 138.226 52.173 136.04 54.36L132.759 57.6404C130.572 59.8273 127.026 59.8273 124.84 57.6404L121.559 54.36C119.372 52.173 115.826 52.173 113.64 54.36L110.359 57.6404C108.172 59.8273 104.626 59.8273 102.44 57.6404L99.1591 54.36C96.9722 52.173 93.4265 52.173 91.2395 54.36L89.5993 56.0002" stroke="#39312D" stroke-width="1.4"/>
<path d="M268.801 56.0002L267.16 57.6404C264.973 59.8273 261.428 59.8273 259.241 57.6404L255.96 54.36C253.773 52.173 250.228 52.173 248.041 54.36L244.76 57.6404C242.573 59.8273 239.028 59.8273 236.841 57.6404L233.56 54.36C231.373 52.173 227.828 52.173 225.641 54.36L222.36 57.6404C220.173 59.8273 216.628 59.8273 214.441 57.6404L211.16 54.36C208.973 52.173 205.428 52.173 203.241 54.36L199.96 57.6404C197.773 59.8273 194.228 59.8273 192.041 57.6404L188.76 54.36C186.573 52.173 183.028 52.173 180.841 54.36L179.201 56.0002" stroke="#39312D" stroke-width="1.4"/>
<path d="M358.4 56.0002L356.76 57.6404C354.573 59.8273 351.027 59.8273 348.84 57.6404L345.56 54.36C343.373 52.173 339.827 52.173 337.64 54.36L334.36 57.6404C332.173 59.8273 328.627 59.8273 326.44 57.6404L323.16 54.36C320.973 52.173 317.427 52.173 315.24 54.36L311.96 57.6404C309.773 59.8273 306.227 59.8273 304.04 57.6404L300.76 54.36C298.573 52.173 295.027 52.173 292.84 54.36L289.56 57.6404C287.373 59.8273 283.827 59.8273 281.64 57.6404L278.36 54.36C276.173 52.173 272.627 52.173 270.44 54.36L268.8 56.0002" stroke="#39312D" stroke-width="1.4"/>
<path d="M89.6 39.2L87.9598 40.8402C85.7729 43.0271 82.2271 43.0271 80.0402 40.8402L76.7598 37.5598C74.5729 35.3728 71.0271 35.3728 68.8402 37.5598L65.5598 40.8402C63.3729 43.0271 59.8271 43.0271 57.6402 40.8402L54.3598 37.5598C52.1729 35.3728 48.6271 35.3728 46.4402 37.5598L43.1598 40.8402C40.9729 43.0271 37.4271 43.0271 35.2402 40.8402L31.9598 37.5598C29.7729 35.3728 26.2271 35.3728 24.0402 37.5598L20.7598 40.8402C18.5729 43.0271 15.0271 43.0271 12.8402 40.8402L9.5598 37.5598C7.37286 35.3728 3.82714 35.3728 1.6402 37.5598L0 39.2" stroke="#39312D" stroke-width="1.4"/>
<path d="M179.199 39.2004L177.559 40.8406C175.372 43.0275 171.826 43.0275 169.64 40.8406L166.359 37.5602C164.172 35.3732 160.626 35.3732 158.44 37.5602L155.159 40.8406C152.972 43.0275 149.426 43.0275 147.24 40.8406L143.959 37.5602C141.772 35.3732 138.226 35.3732 136.04 37.5602L132.759 40.8406C130.572 43.0275 127.026 43.0275 124.84 40.8406L121.559 37.5602C119.372 35.3732 115.826 35.3732 113.64 37.5602L110.359 40.8406C108.172 43.0275 104.626 43.0275 102.44 40.8406L99.1591 37.5602C96.9722 35.3732 93.4265 35.3732 91.2395 37.5602L89.5993 39.2004" stroke="#39312D" stroke-width="1.4"/>
<path d="M268.801 39.2004L267.16 40.8406C264.973 43.0275 261.428 43.0275 259.241 40.8406L255.96 37.5602C253.773 35.3732 250.228 35.3732 248.041 37.5602L244.76 40.8406C242.573 43.0275 239.028 43.0275 236.841 40.8406L233.56 37.5602C231.373 35.3732 227.828 35.3732 225.641 37.5602L222.36 40.8406C220.173 43.0275 216.628 43.0275 214.441 40.8406L211.16 37.5602C208.973 35.3732 205.428 35.3732 203.241 37.5602L199.96 40.8406C197.773 43.0275 194.228 43.0275 192.041 40.8406L188.76 37.5602C186.573 35.3732 183.028 35.3732 180.841 37.5602L179.201 39.2004" stroke="#39312D" stroke-width="1.4"/>
<path d="M358.4 39.2004L356.76 40.8406C354.573 43.0275 351.027 43.0275 348.84 40.8406L345.56 37.5602C343.373 35.3732 339.827 35.3732 337.64 37.5602L334.36 40.8406C332.173 43.0275 328.627 43.0275 326.44 40.8406L323.16 37.5602C320.973 35.3732 317.427 35.3732 315.24 37.5602L311.96 40.8406C309.773 43.0275 306.227 43.0275 304.04 40.8406L300.76 37.5602C298.573 35.3732 295.027 35.3732 292.84 37.5602L289.56 40.8406C287.373 43.0275 283.827 43.0275 281.64 40.8406L278.36 37.5602C276.173 35.3732 272.627 35.3732 270.44 37.5602L268.8 39.2004" stroke="#39312D" stroke-width="1.4"/>
<path d="M89.6 22.4L87.9598 24.0402C85.7729 26.2271 82.2271 26.2271 80.0402 24.0402L76.7598 20.7598C74.5729 18.5729 71.0271 18.5729 68.8402 20.7598L65.5598 24.0402C63.3729 26.2271 59.8271 26.2271 57.6402 24.0402L54.3598 20.7598C52.1729 18.5729 48.6271 18.5729 46.4402 20.7598L43.1598 24.0402C40.9729 26.2271 37.4271 26.2271 35.2402 24.0402L31.9598 20.7598C29.7729 18.5729 26.2271 18.5729 24.0402 20.7598L20.7598 24.0402C18.5729 26.2271 15.0271 26.2271 12.8402 24.0402L9.5598 20.7598C7.37286 18.5729 3.82714 18.5729 1.6402 20.7598L0 22.4" stroke="#39312D" stroke-width="1.4"/>
<path d="M179.199 22.3997L177.559 24.0399C175.372 26.2268 171.826 26.2268 169.64 24.0399L166.359 20.7595C164.172 18.5726 160.626 18.5726 158.44 20.7595L155.159 24.0399C152.972 26.2268 149.426 26.2268 147.24 24.0399L143.959 20.7595C141.772 18.5726 138.226 18.5726 136.04 20.7595L132.759 24.0399C130.572 26.2268 127.026 26.2268 124.84 24.0399L121.559 20.7595C119.372 18.5726 115.826 18.5726 113.64 20.7595L110.359 24.0399C108.172 26.2268 104.626 26.2268 102.44 24.0399L99.1591 20.7595C96.9722 18.5726 93.4265 18.5726 91.2395 20.7595L89.5993 22.3997" stroke="#39312D" stroke-width="1.4"/>
<path d="M268.801 22.3997L267.16 24.0399C264.973 26.2268 261.428 26.2268 259.241 24.0399L255.96 20.7595C253.773 18.5726 250.228 18.5726 248.041 20.7595L244.76 24.0399C242.573 26.2268 239.028 26.2268 236.841 24.0399L233.56 20.7595C231.373 18.5726 227.828 18.5726 225.641 20.7595L222.36 24.0399C220.173 26.2268 216.628 26.2268 214.441 24.0399L211.16 20.7595C208.973 18.5726 205.428 18.5726 203.241 20.7595L199.96 24.0399C197.773 26.2268 194.228 26.2268 192.041 24.0399L188.76 20.7595C186.573 18.5726 183.028 18.5726 180.841 20.7595L179.201 22.3997" stroke="#39312D" stroke-width="1.4"/>
<path d="M358.4 22.3997L356.76 24.0399C354.573 26.2268 351.027 26.2268 348.84 24.0399L345.56 20.7595C343.373 18.5726 339.827 18.5726 337.64 20.7595L334.36 24.0399C332.173 26.2268 328.627 26.2268 326.44 24.0399L323.16 20.7595C320.973 18.5726 317.427 18.5726 315.24 20.7595L311.96 24.0399C309.773 26.2268 306.227 26.2268 304.04 24.0399L300.76 20.7595C298.573 18.5726 295.027 18.5726 292.84 20.7595L289.56 24.0399C287.373 26.2268 283.827 26.2268 281.64 24.0399L278.36 20.7595C276.173 18.5726 272.627 18.5726 270.44 20.7595L268.8 22.3997" stroke="#39312D" stroke-width="1.4"/>
<path d="M89.6 5.60001L87.9598 7.24021C85.7729 9.42715 82.2271 9.42715 80.0402 7.24022L76.7598 3.95981C74.5729 1.77287 71.0271 1.77287 68.8402 3.95981L65.5598 7.24021C63.3729 9.42715 59.8271 9.42715 57.6402 7.24022L54.3598 3.95981C52.1729 1.77287 48.6271 1.77287 46.4402 3.95981L43.1598 7.24021C40.9729 9.42715 37.4271 9.42715 35.2402 7.24022L31.9598 3.95981C29.7729 1.77287 26.2271 1.77287 24.0402 3.95981L20.7598 7.24021C18.5729 9.42715 15.0271 9.42715 12.8402 7.24022L9.5598 3.95981C7.37286 1.77287 3.82714 1.77287 1.6402 3.95981L0 5.60001" stroke="#39312D" stroke-width="1.4"/>
<path d="M179.199 5.59989L177.559 7.24009C175.372 9.42703 171.826 9.42703 169.64 7.24009L166.359 3.95969C164.172 1.77275 160.626 1.77275 158.44 3.95969L155.159 7.24009C152.972 9.42703 149.426 9.42703 147.24 7.24009L143.959 3.95969C141.772 1.77275 138.226 1.77275 136.04 3.95969L132.759 7.24009C130.572 9.42703 127.026 9.42703 124.84 7.24009L121.559 3.95969C119.372 1.77275 115.826 1.77275 113.64 3.95969L110.359 7.24009C108.172 9.42703 104.626 9.42703 102.44 7.24009L99.1591 3.95969C96.9722 1.77275 93.4265 1.77275 91.2395 3.95969L89.5993 5.59989" stroke="#39312D" stroke-width="1.4"/>
<path d="M268.801 5.59989L267.16 7.24009C264.973 9.42703 261.428 9.42703 259.241 7.24009L255.96 3.95969C253.773 1.77275 250.228 1.77275 248.041 3.95969L244.76 7.24009C242.573 9.42703 239.028 9.42703 236.841 7.24009L233.56 3.95969C231.373 1.77275 227.828 1.77275 225.641 3.95969L222.36 7.24009C220.173 9.42703 216.628 9.42703 214.441 7.24009L211.16 3.95969C208.973 1.77275 205.428 1.77275 203.241 3.95969L199.96 7.24009C197.773 9.42703 194.228 9.42703 192.041 7.24009L188.76 3.95969C186.573 1.77275 183.028 1.77275 180.841 3.95969L179.201 5.59989" stroke="#39312D" stroke-width="1.4"/>
<path d="M358.4 5.59989L356.76 7.24009C354.573 9.42703 351.027 9.42703 348.84 7.24009L345.56 3.95969C343.373 1.77275 339.827 1.77275 337.64 3.95969L334.36 7.24009C332.173 9.42703 328.627 9.42703 326.44 7.24009L323.16 3.95969C320.973 1.77275 317.427 1.77275 315.24 3.95969L311.96 7.24009C309.773 9.42703 306.227 9.42703 304.04 7.24009L300.76 3.95969C298.573 1.77275 295.027 1.77275 292.84 3.95969L289.56 7.24009C287.373 9.42703 283.827 9.42703 281.64 7.24009L278.36 3.95969C276.173 1.77275 272.627 1.77275 270.44 3.95969L268.8 5.59989" stroke="#39312D" stroke-width="1.4"/>
</g>
</g>
</svg>
