<svg xmlns:xlink="http://www.w3.org/1999/xlink" xmlns="http://www.w3.org/2000/svg" viewBox="0 0 18 18" width="18"  height="18" ><g fill="none" fill-rule="evenodd"><path d="M0 0h18v18H0z" fill="none"></path><path fill="currentColor" class="icon-stroke" d="M9 1.425a6 6 0 016 6c0 2.241-.878 3.77-2.834 5.813l-.955.994a17.537 17.537 0 00-1.59 2.013.75.75 0 01-1.242 0 17.305 17.305 0 00-1.58-2.003c-.2-.212-.939-.975-.966-1.004l-.25-.263C3.806 11.063 3 9.568 3 7.425a6 6 0 016-6zm0 1.5a4.5 4.5 0 00-4.5 4.5c0 1.76.706 2.99 2.416 4.776l.983 1.022c.376.41.734.837 1.072 1.279L9 14.54l.378-.479.36-.429.372-.42 1.2-1.252c1.548-1.66 2.19-2.855 2.19-4.535a4.5 4.5 0 00-4.5-4.5zm0 1.65a2.85 2.85 0 110 5.7 2.85 2.85 0 010-5.7zm0 1.5a1.35 1.35 0 100 2.7 1.35 1.35 0 000-2.7z"></path></g></svg>