<svg xmlns:xlink="http://www.w3.org/1999/xlink" xmlns="http://www.w3.org/2000/svg" data-v-2223eef2="" width="24" height="24" class="flex-none mr-2"><defs><symbol viewBox="0 0 24 24" id="ic_diving" xmlns="http://www.w3.org/2000/svg"><path fill-rule="evenodd" clip-rule="evenodd" d="M10 21h4a1 1 0 001-1v-9a3 3 0 10-6 0v9a1 1 0 001 1zm0 1h4a2 2 0 002-2v-9a4 4 0 00-8 0v9a2 2 0 002 2zm2-17a1 1 0 100-2 1 1 0 000 2zm0 1a2 2 0 100-4 2 2 0 000 4z"></path><path fill-rule="evenodd" clip-rule="evenodd" d="M15.688 2.61A.5.5 0 0116 2.5h1a.5.5 0 01.5.5v2a.5.5 0 01-.5.5h-1a.5.5 0 01-.312-.11l-1.113-.89H13.5v-1h1.075l1.113-.89zM15.55 4l.625.5h.325v-1h-.325l-.625.5zM7.5 4a.5.5 0 01.5-.5h2.5v1H8a.5.5 0 01-.5-.5zm4 3.5v-2h1v2h-1zM15 13H9v2h6v-2zm-7-1v4h8v-4H8z"></path></symbol></defs><use data-v-2223eef2="" xlink:href="#ic_diving"></use></svg>