<svg xmlns:xlink="http://www.w3.org/1999/xlink" xmlns="http://www.w3.org/2000/svg" data-v-7b2c3160="" data-v-00820923="" width="24" height="24" class="inline-block mr-2"><defs><symbol viewBox="0 0 24 24" id="ic_anker" xmlns="http://www.w3.org/2000/svg"><path fill-rule="evenodd" clip-rule="evenodd" d="M12 5a.5.5 0 100-1 .5.5 0 000 1zm0 1a1.5 1.5 0 100-3 1.5 1.5 0 000 3zM4.616 16.82L5 16.5l.384-.32.003.003.017.02.076.083c.07.074.177.183.32.315.286.265.716.62 1.28.976A9.144 9.144 0 0012 19c2.134 0 3.793-.71 4.92-1.423a8.913 8.913 0 001.28-.976 6.432 6.432 0 00.413-.418l.003-.003.384.32.384.32-.002.002-.002.003a9.928 9.928 0 01-1.925 1.598A10.144 10.144 0 0112 20c-2.365 0-4.207-.79-5.455-1.577a9.927 9.927 0 01-1.423-1.087 7.466 7.466 0 01-.494-.502l-.008-.01-.003-.002v-.001z"></path><path d="M19.5 16.5a.5.5 0 11-1 0 .5.5 0 011 0zm-7 4a.5.5 0 11-1 0 .5.5 0 011 0zm-7-4a.5.5 0 11-1 0 .5.5 0 011 0z"></path><path fill-rule="evenodd" clip-rule="evenodd" d="M11.5 7.5v-2h1v2H16v1h-3.5v12h-1v-12H8v-1h3.5z"></path><path d="M8.5 8a.5.5 0 11-1 0 .5.5 0 011 0zm8 0a.5.5 0 11-1 0 .5.5 0 011 0z"></path></symbol></defs><use data-v-7b2c3160="" data-v-00820923="" xlink:href="#ic_anker"></use></svg>