<svg xmlns:xlink="http://www.w3.org/1999/xlink" xmlns="http://www.w3.org/2000/svg" data-v-2223eef2="" width="24" height="24" class="flex-none mr-2"><defs><symbol viewBox="0 0 24 24" id="ic_calendar" xmlns="http://www.w3.org/2000/svg"><path fill-rule="evenodd" clip-rule="evenodd" d="M19 5H5a1 1 0 00-1 1v12a1 1 0 001 1h14a1 1 0 001-1V6a1 1 0 00-1-1zM5 4a2 2 0 00-2 2v12a2 2 0 002 2h14a2 2 0 002-2V6a2 2 0 00-2-2H5z"></path><path d="M6 2.5a.5.5 0 011 0V4H6V2.5zm10 0a.5.5 0 011 0V4h-1V2.5zM3 7h18v1H3V7zm8 4a1 1 0 112 0 1 1 0 01-2 0zm5 0a1 1 0 112 0 1 1 0 01-2 0zm0 5a1 1 0 112 0 1 1 0 01-2 0zm-5 0a1 1 0 112 0 1 1 0 01-2 0zm-5 0a1 1 0 112 0 1 1 0 01-2 0zm0-5a1 1 0 112 0 1 1 0 01-2 0z"></path></symbol></defs><use data-v-2223eef2="" xlink:href="#ic_calendar"></use></svg>