<svg xmlns:xlink="http://www.w3.org/1999/xlink" xmlns="http://www.w3.org/2000/svg" viewBox="0 0 22 22" width="22"  height="22" ><g fill="none" fill-rule="evenodd"><path d="M0 0h22v22H0z" fill="none"></path><path d="M4.877 10.413c0 2.014 1.213 3.694 1.213 3.694l-.76 2.267 2.342-.764s1.526 1.03 3.432 1.03a6.227 6.227 0 000-12.454 6.227 6.227 0 00-6.227 6.227" fill="none"></path><path d="M11.104 3a7.413 7.413 0 110 14.826c-2.064 0-3.571-.915-3.571-.915L3.47 18.209l1.296-3.948S3.69 12.445 3.69 10.413A7.413 7.413 0 0111.104 3zm0 1.186a6.227 6.227 0 00-6.227 6.227c0 2.014 1.213 3.694 1.213 3.694l-.76 2.267 2.342-.764s1.526 1.03 3.432 1.03a6.227 6.227 0 000-12.454zM9.17 7.06s.156.027.228.19c.067.15.491 1.148.585 1.371l.016.039c.037.089.132.31-.02.507-.154.198-.475.568-.475.568s-.127.114-.017.296.497.782 1.003 1.236c.506.453 1.126.787 1.435.888.309.102.377-.034.495-.186l.487-.618s.127-.186.376-.072c.25.115 1.465.703 1.465.703s.148.025.156.19c.009.165.11.66-.33 1.134-.44.476-1.376.695-1.82.572-.443-.124-1.908-.508-2.864-1.4-.956-.89-1.73-1.829-2.047-2.52-.316-.693-.299-1.103-.281-1.297.017-.193.119-1.09.719-1.474 0 0 .2-.127.305-.127h.584z" fill="#767676" class="icon-stroke"></path></g></svg>